<?xml version="1.0" encoding="utf-8"?>
<!-- Generator: Adobe Illustrator 21.0.2, SVG Export Plug-In . SVG Version: 6.00 Build 0)  -->
<svg version="1.1"
	 id="Layer_1" xmlns:cc="http://creativecommons.org/ns#" xmlns:dc="http://purl.org/dc/elements/1.1/" xmlns:inkscape="http://www.inkscape.org/namespaces/inkscape" xmlns:rdf="http://www.w3.org/1999/02/22-rdf-syntax-ns#" xmlns:sodipodi="http://sodipodi.sourceforge.net/DTD/sodipodi-0.dtd" xmlns:svg="http://www.w3.org/2000/svg"
	 xmlns="http://www.w3.org/2000/svg" xmlns:xlink="http://www.w3.org/1999/xlink" x="0px" y="0px" viewBox="0 0 48 48"
	 style="enable-background:new 0 0 48 48;" xml:space="preserve">
<g transform="translate(0,-1004.3622)">
	<path d="M19,1039.4c-0.6,0-1,0.5-1,1l0,0v7c0,0.6,0.4,1,1,1c0.6,0,1-0.4,1-1c0,0,0,0,0,0v-7C20.1,1039.8,19.6,1039.4,19,1039.4
		C19.1,1039.4,19,1039.4,19,1039.4z"/>
	<path d="M22,1041.4c-0.2,0-0.3,0-0.5,0.1l-6,3c-0.5,0.2-0.7,0.8-0.5,1.3c0.2,0.5,0.8,0.7,1.3,0.5c0,0,0,0,0.1,0l6-3
		c0.5-0.2,0.7-0.8,0.5-1.3C22.8,1041.6,22.4,1041.4,22,1041.4L22,1041.4z"/>
	<path d="M16,1041.4c-0.6,0-1,0.5-1,1c0,0.4,0.2,0.7,0.6,0.9l6,3c0.5,0.3,1.1,0.1,1.4-0.4s0.1-1.1-0.4-1.4c0,0,0,0,0,0l-6-3
		C16.4,1041.4,16.2,1041.4,16,1041.4L16,1041.4z"/>
	<path d="M20.4,1005c-3.8,1.4-6.5,4.6-7.7,8.4c-0.4,0-0.7,0-1.1-0.1l0,0c-1.1,0-2.2,0.2-3.3,0.6c-5.7,2-9.1,7.8-8.2,13.8
		c0.9,5.8,5.7,10.1,11.5,10.5c5.1,0.2,10.4,0.1,14.8,0.1c4-0.2,7.5-2.7,8.9-6.3c0.2-0.6,0.4-1.1,0.5-1.7h2.6c0,0,0,0,0.1,0
		c4-0.2,7.4-2.8,8.9-6.6c1.4-3.8,0.5-8-2.3-10.9c-2.7-2.7-6.6-3-10-1.9c-2.4-4-6.6-6.7-11-6.6C22.8,1004.4,21.4,1004.6,20.4,1005
		L20.4,1005z M23.7,1006.3L23.7,1006.3c3.9-0.1,7.8,2.3,9.9,6.1c0,0.1,0.1,0.2,0.2,0.2l0.2,0.2c0.3,0.3,0.7,0.4,1.1,0.2
		c3-1.2,6.4-1,8.6,1.2c2.3,2.3,3,5.7,1.9,8.8c-1.1,3-3.9,5.1-7.1,5.3H36c0,0,0,0,0,0c0-0.3,0-0.6-0.1-0.9c0,0,0,0,0,0
		c-0.1-0.9-0.4-1.8-0.7-2.7c-0.5-1.3-1.3-2.2-2.2-3.2c-2.7-2.6-6.6-2.9-10-1.8c-1.5-2.4-3.7-4.3-6.2-5.3c-0.7-0.3-1.4-0.5-2.1-0.7
		c1-3.1,3.2-5.7,6.3-6.8C21.9,1006.5,22.8,1006.4,23.7,1006.3L23.7,1006.3z M11.7,1015.3L11.7,1015.3c0.5,0,1,0,1.6,0.1
		c0,0,0,0,0.1,0c0.8,0.1,1.6,0.3,2.4,0.6c2.5,1,4.6,2.8,5.9,5.2c0.1,0.1,0.1,0.2,0.2,0.2l0.1,0.1l0,0c0,0,0,0,0.1,0c0,0,0,0,0.1,0
		c0,0,0,0,0,0l0,0c0,0,0,0,0.1,0c0,0,0,0,0.1,0c0,0,0,0,0,0c0,0,0,0,0,0c0,0,0,0,0,0c0,0,0,0,0.1,0c0,0,0,0,0,0c0.2,0,0.4,0,0.6,0
		c2.8-1.1,6-1,8.2,0.8c0.1,0.1,0.3,0.2,0.4,0.4c0,0,0,0,0,0c1.6,1.6,2.3,3.6,2.3,5.7c0,0.2,0,0.3,0,0.5c-0.1,0.7-0.2,1.4-0.5,2.1
		c-1.1,2.9-3.9,4.9-7.1,5H12.2c0,0-0.1,0-0.1,0c-5-0.2-9.2-3.9-10-8.9c-0.8-5,2.1-9.9,6.9-11.6C9.9,1015.5,10.8,1015.3,11.7,1015.3
		L11.7,1015.3z"/>
	<path d="M41.1,1039.4c-0.6,0-1,0.5-1,1c0,0,0,0,0,0v7c0,0.6,0.4,1,1,1c0.6,0,1-0.4,1-1c0,0,0,0,0,0v-7
		C42.1,1039.8,41.7,1039.4,41.1,1039.4C41.1,1039.4,41.1,1039.4,41.1,1039.4z"/>
	<path d="M44.1,1041.4c-0.2,0-0.3,0-0.5,0.1l-6,3c-0.5,0.2-0.7,0.8-0.5,1.3c0.2,0.5,0.8,0.7,1.3,0.5c0,0,0,0,0.1,0l6-3
		c0.5-0.2,0.7-0.8,0.5-1.3C44.8,1041.6,44.5,1041.4,44.1,1041.4L44.1,1041.4z"/>
	<path d="M38.1,1041.4c-0.6,0-1,0.5-1,1c0,0.4,0.2,0.7,0.6,0.9l6,3c0.5,0.3,1.1,0.1,1.4-0.4s0.1-1.1-0.4-1.4c0,0,0,0,0,0l-6-3
		C38.4,1041.4,38.2,1041.4,38.1,1041.4L38.1,1041.4z"/>
	<path d="M30.1,1043.4c-0.6,0-1,0.5-1,1l0,0v7c0,0.6,0.4,1,1,1c0.6,0,1-0.4,1-1c0,0,0,0,0,0v-7C31.1,1043.8,30.6,1043.4,30.1,1043.4
		C30.1,1043.4,30.1,1043.4,30.1,1043.4z"/>
	<path d="M33.1,1045.4c-0.2,0-0.3,0-0.5,0.1l-6,3c-0.5,0.2-0.7,0.8-0.5,1.3c0.2,0.5,0.8,0.7,1.3,0.5c0,0,0,0,0.1,0l6-3
		c0.5-0.2,0.7-0.8,0.5-1.3C33.8,1045.6,33.5,1045.4,33.1,1045.4L33.1,1045.4z"/>
	<path d="M27,1045.4c-0.6,0-1,0.5-1,1c0,0.4,0.2,0.7,0.6,0.9l6,3c0.5,0.3,1.1,0.1,1.4-0.4s0.1-1.1-0.4-1.4c0,0,0,0,0,0l-6-3
		C27.4,1045.4,27.2,1045.4,27,1045.4L27,1045.4z"/>
	<path d="M8,1043.4c-0.6,0-1,0.5-1,1c0,0,0,0,0,0v7c0,0.6,0.4,1,1,1s1-0.4,1-1c0,0,0,0,0,0v-7C9,1043.8,8.6,1043.4,8,1043.4
		C8,1043.4,8,1043.4,8,1043.4z"/>
	<path d="M11,1045.4c-0.2,0-0.3,0-0.5,0.1l-6,3c-0.5,0.2-0.7,0.8-0.5,1.3c0.2,0.5,0.8,0.7,1.3,0.5c0,0,0,0,0.1,0l6-3
		c0.5-0.2,0.7-0.8,0.5-1.3C11.8,1045.6,11.4,1045.4,11,1045.4L11,1045.4z"/>
	<path d="M5,1045.4c-0.6,0-1,0.5-1,1c0,0.4,0.2,0.7,0.6,0.9l6,3c0.5,0.3,1.1,0.1,1.4-0.4c0.3-0.5,0.1-1.1-0.4-1.4c0,0,0,0,0,0l-6-3
		C5.3,1045.4,5.2,1045.4,5,1045.4L5,1045.4z"/>
</g>
</svg>
