<?xml version="1.0" encoding="utf-8"?>
<!-- Generator: Adobe Illustrator 21.0.2, SVG Export Plug-In . SVG Version: 6.00 Build 0)  -->
<svg version="1.1"
	 id="Layer_1" xmlns:cc="http://creativecommons.org/ns#" xmlns:dc="http://purl.org/dc/elements/1.1/" xmlns:inkscape="http://www.inkscape.org/namespaces/inkscape" xmlns:rdf="http://www.w3.org/1999/02/22-rdf-syntax-ns#" xmlns:sodipodi="http://sodipodi.sourceforge.net/DTD/sodipodi-0.dtd" xmlns:svg="http://www.w3.org/2000/svg"
	 xmlns="http://www.w3.org/2000/svg" xmlns:xlink="http://www.w3.org/1999/xlink" x="0px" y="0px" viewBox="0 0 38 28"
	 style="enable-background:new 0 0 38 28;" xml:space="preserve">
<g transform="translate(0,-1004.3622)">
	<g>
		<path d="M1,1004.4c-0.6,0-1,0.5-1,1c0,0.3,0.1,0.6,0.4,0.8c0,0,0.7,0.5,1.5,1.1c0.9,0.5,1.9,1.1,3.1,1.1s2-0.7,2.6-1.2
			c0.6-0.5,1.1-0.8,1.4-0.8c0.3,0,0.7,0.3,1.4,0.8c0.6,0.5,1.4,1.2,2.6,1.2c1.2,0,2-0.7,2.6-1.2c0.6-0.5,1.1-0.8,1.4-0.8
			s0.8,0.3,1.4,0.8c0.6,0.5,1.4,1.2,2.6,1.2c1.2,0,2-0.7,2.6-1.2c0.6-0.5,1.1-0.8,1.4-0.8c0.3,0,0.8,0.3,1.4,0.8s1.4,1.2,2.6,1.2
			c1.2,0,2-0.7,2.6-1.2c0.6-0.5,1.1-0.8,1.4-0.8c0.3,0,1.3,0.4,2,0.8c0.8,0.5,1.3,0.9,1.3,0.9c0.4,0.4,1.1,0.3,1.4-0.1
			c0.4-0.4,0.3-1.1-0.1-1.4c0,0,0,0,0,0c0,0-0.7-0.5-1.5-1.1c-0.9-0.5-1.9-1.1-3.1-1.1c-1.2,0-2,0.7-2.6,1.2
			c-0.6,0.5-1.1,0.8-1.4,0.8c-0.3,0-0.7-0.3-1.4-0.8c-0.6-0.5-1.4-1.2-2.6-1.2c-1.2,0-2,0.7-2.6,1.2c-0.6,0.5-1.1,0.8-1.4,0.8
			s-0.7-0.3-1.4-0.8s-1.4-1.2-2.6-1.2c-1.2,0-2,0.7-2.6,1.2c-0.6,0.5-1.1,0.8-1.4,0.8s-0.8-0.3-1.4-0.8c-0.6-0.5-1.4-1.2-2.6-1.2
			s-2,0.7-2.6,1.2c-0.6,0.5-1.1,0.8-1.4,0.8s-1.3-0.4-2-0.8c-0.8-0.5-1.3-0.9-1.3-0.9C1.4,1004.4,1.2,1004.4,1,1004.4z"/>
		<path d="M1,1010.4c-0.6,0-1,0.5-1,1c0,0.3,0.1,0.6,0.4,0.8c0,0,0.7,0.5,1.5,1.1c0.9,0.5,1.9,1.1,3.1,1.1s2-0.7,2.6-1.2
			c0.6-0.5,1.1-0.8,1.4-0.8c0.3,0,0.7,0.3,1.4,0.8c0.6,0.5,1.4,1.2,2.6,1.2c1.2,0,2-0.7,2.6-1.2c0.6-0.5,1.1-0.8,1.4-0.8
			s0.8,0.3,1.4,0.8c0.6,0.5,1.4,1.2,2.6,1.2c1.2,0,2-0.7,2.6-1.2c0.6-0.5,1.1-0.8,1.4-0.8c0.3,0,0.8,0.3,1.4,0.8s1.4,1.2,2.6,1.2
			c1.2,0,2-0.7,2.6-1.2c0.6-0.5,1.1-0.8,1.4-0.8c0.3,0,1.3,0.4,2,0.8c0.8,0.5,1.3,0.9,1.3,0.9c0.4,0.4,1.1,0.3,1.4-0.1
			c0.4-0.4,0.3-1.1-0.1-1.4c0,0,0,0,0,0c0,0-0.7-0.5-1.5-1.1c-0.9-0.5-1.9-1.1-3.1-1.1c-1.2,0-2,0.7-2.6,1.2
			c-0.6,0.5-1.1,0.8-1.4,0.8c-0.3,0-0.7-0.3-1.4-0.8c-0.6-0.5-1.4-1.2-2.6-1.2c-1.2,0-2,0.7-2.6,1.2c-0.6,0.5-1.1,0.8-1.4,0.8
			s-0.7-0.3-1.4-0.8s-1.4-1.2-2.6-1.2c-1.2,0-2,0.7-2.6,1.2c-0.6,0.5-1.1,0.8-1.4,0.8s-0.8-0.3-1.4-0.8c-0.6-0.5-1.4-1.2-2.6-1.2
			s-2,0.7-2.6,1.2c-0.6,0.5-1.1,0.8-1.4,0.8s-1.3-0.4-2-0.8c-0.8-0.5-1.3-0.9-1.3-0.9C1.4,1010.4,1.2,1010.4,1,1010.4z"/>
	</g>
	<path d="M1,1016.4c-0.6,0-1,0.5-1,1c0,0.3,0.1,0.6,0.4,0.8c0,0,0.7,0.5,1.5,1.1c0.9,0.5,1.9,1.1,3.1,1.1s2-0.7,2.6-1.2
		c0.6-0.5,1.1-0.8,1.4-0.8c0.3,0,0.7,0.3,1.4,0.8c0.6,0.5,1.4,1.2,2.6,1.2c1.2,0,2-0.7,2.6-1.2c0.6-0.5,1.1-0.8,1.4-0.8
		s0.8,0.3,1.4,0.8c0.6,0.5,1.4,1.2,2.6,1.2c1.2,0,2-0.7,2.6-1.2c0.6-0.5,1.1-0.8,1.4-0.8c0.3,0,0.8,0.3,1.4,0.8s1.4,1.2,2.6,1.2
		c1.2,0,2-0.7,2.6-1.2c0.6-0.5,1.1-0.8,1.4-0.8c0.3,0,1.3,0.4,2,0.8c0.8,0.5,1.3,0.9,1.3,0.9c0.4,0.4,1.1,0.3,1.4-0.1
		c0.4-0.4,0.3-1.1-0.1-1.4c0,0,0,0,0,0c0,0-0.7-0.5-1.5-1.1c-0.9-0.5-1.9-1.1-3.1-1.1c-1.2,0-2,0.7-2.6,1.2
		c-0.6,0.5-1.1,0.8-1.4,0.8c-0.3,0-0.7-0.3-1.4-0.8c-0.6-0.5-1.4-1.2-2.6-1.2c-1.2,0-2,0.7-2.6,1.2s-1.1,0.8-1.4,0.8
		s-0.7-0.3-1.4-0.8s-1.4-1.2-2.6-1.2c-1.2,0-2,0.7-2.6,1.2c-0.6,0.5-1.1,0.8-1.4,0.8s-0.8-0.3-1.4-0.8c-0.6-0.5-1.4-1.2-2.6-1.2
		s-2,0.7-2.6,1.2s-1.1,0.8-1.4,0.8s-1.3-0.4-2-0.8s-1.3-0.9-1.3-0.9C1.4,1016.4,1.2,1016.4,1,1016.4z"/>
	<path d="M1,1022.4c-0.6,0-1,0.5-1,1c0,0.3,0.1,0.6,0.4,0.8c0,0,0.7,0.5,1.5,1.1c0.9,0.5,1.9,1.1,3.1,1.1s2-0.7,2.6-1.2
		c0.6-0.5,1.1-0.8,1.4-0.8c0.3,0,0.7,0.3,1.4,0.8c0.6,0.5,1.4,1.2,2.6,1.2c1.2,0,2-0.7,2.6-1.2c0.6-0.5,1.1-0.8,1.4-0.8
		s0.8,0.3,1.4,0.8c0.6,0.5,1.4,1.2,2.6,1.2c1.2,0,2-0.7,2.6-1.2c0.6-0.5,1.1-0.8,1.4-0.8c0.3,0,0.8,0.3,1.4,0.8s1.4,1.2,2.6,1.2
		c1.2,0,2-0.7,2.6-1.2c0.6-0.5,1.1-0.8,1.4-0.8c0.3,0,1.3,0.4,2,0.8c0.8,0.5,1.3,0.9,1.3,0.9c0.4,0.4,1.1,0.3,1.4-0.1
		c0.4-0.4,0.3-1.1-0.1-1.4c0,0,0,0,0,0c0,0-0.7-0.5-1.5-1.1c-0.9-0.5-1.9-1.1-3.1-1.1c-1.2,0-2,0.7-2.6,1.2
		c-0.6,0.5-1.1,0.8-1.4,0.8c-0.3,0-0.7-0.3-1.4-0.8c-0.6-0.5-1.4-1.2-2.6-1.2c-1.2,0-2,0.7-2.6,1.2c-0.6,0.5-1.1,0.8-1.4,0.8
		s-0.7-0.3-1.4-0.8c-0.6-0.5-1.4-1.2-2.6-1.2c-1.2,0-2,0.7-2.6,1.2c-0.6,0.5-1.1,0.8-1.4,0.8s-0.8-0.3-1.4-0.8
		c-0.6-0.5-1.4-1.2-2.6-1.2s-2,0.7-2.6,1.2c-0.6,0.5-1.1,0.8-1.4,0.8s-1.3-0.4-2-0.8s-1.3-0.9-1.3-0.9
		C1.4,1022.4,1.2,1022.4,1,1022.4z"/>
	<path d="M1,1028.4c-0.6,0-1,0.5-1,1c0,0.3,0.1,0.6,0.4,0.8c0,0,0.7,0.5,1.5,1.1c0.9,0.5,1.9,1.1,3.1,1.1s2-0.7,2.6-1.2
		c0.6-0.5,1.1-0.8,1.4-0.8c0.3,0,0.7,0.3,1.4,0.8c0.6,0.5,1.4,1.2,2.6,1.2c1.2,0,2-0.7,2.6-1.2c0.6-0.5,1.1-0.8,1.4-0.8
		s0.8,0.3,1.4,0.8c0.6,0.5,1.4,1.2,2.6,1.2c1.2,0,2-0.7,2.6-1.2c0.6-0.5,1.1-0.8,1.4-0.8c0.3,0,0.8,0.3,1.4,0.8s1.4,1.2,2.6,1.2
		c1.2,0,2-0.7,2.6-1.2c0.6-0.5,1.1-0.8,1.4-0.8c0.3,0,1.3,0.4,2,0.8c0.8,0.5,1.3,0.9,1.3,0.9c0.4,0.4,1.1,0.3,1.4-0.1
		c0.4-0.4,0.3-1.1-0.1-1.4c0,0,0,0,0,0c0,0-0.7-0.5-1.5-1.1c-0.9-0.5-1.9-1.1-3.1-1.1c-1.2,0-2,0.7-2.6,1.2
		c-0.6,0.5-1.1,0.8-1.4,0.8c-0.3,0-0.7-0.3-1.4-0.8c-0.6-0.5-1.4-1.2-2.6-1.2c-1.2,0-2,0.7-2.6,1.2s-1.1,0.8-1.4,0.8
		s-0.7-0.3-1.4-0.8s-1.4-1.2-2.6-1.2c-1.2,0-2,0.7-2.6,1.2c-0.6,0.5-1.1,0.8-1.4,0.8s-0.8-0.3-1.4-0.8c-0.6-0.5-1.4-1.2-2.6-1.2
		s-2,0.7-2.6,1.2s-1.1,0.8-1.4,0.8s-1.3-0.4-2-0.8s-1.3-0.9-1.3-0.9C1.4,1028.4,1.2,1028.4,1,1028.4z"/>
</g>
</svg>
