<?xml version="1.0" encoding="utf-8"?>
<!-- Generator: Adobe Illustrator 21.0.2, SVG Export Plug-In . SVG Version: 6.00 Build 0)  -->
<svg version="1.1"
	 id="Layer_1" xmlns:cc="http://creativecommons.org/ns#" xmlns:dc="http://purl.org/dc/elements/1.1/" xmlns:inkscape="http://www.inkscape.org/namespaces/inkscape" xmlns:rdf="http://www.w3.org/1999/02/22-rdf-syntax-ns#" xmlns:sodipodi="http://sodipodi.sourceforge.net/DTD/sodipodi-0.dtd" xmlns:svg="http://www.w3.org/2000/svg"
	 xmlns="http://www.w3.org/2000/svg" xmlns:xlink="http://www.w3.org/1999/xlink" x="0px" y="0px" viewBox="0 0 42 48"
	 style="enable-background:new 0 0 42 48;" xml:space="preserve">
<g transform="translate(0,-1004.3622)">
	<path d="M21,1010.4c-11.6,0-21,9.4-21,21c0,11.6,9.4,21,21,21s21-9.4,21-21C42,1019.8,32.6,1010.4,21,1010.4z M21,1012.4
		c10.5,0,19,8.5,19,19c0,10.5-8.5,19-19,19s-19-8.5-19-19C2,1020.9,10.5,1012.4,21,1012.4z"/>
	<path d="M21,1004.4c-1.1,0-2.3,0.4-3.2,1.2c0,0,0,0,0,0c-1.9,1.5-2.3,4.2-1.1,6.3c0.3,0.5,0.9,0.6,1.4,0.4c0.5-0.3,0.6-0.9,0.4-1.4
		c0,0,0,0,0,0c-0.7-1.3-0.5-2.8,0.7-3.8c1.1-0.9,2.7-0.9,3.9,0c1.1,0.9,1.4,2.5,0.7,3.8c-0.3,0.5-0.1,1.1,0.3,1.4
		c0.5,0.3,1.1,0.1,1.4-0.3c0,0,0,0,0,0c1.2-2.1,0.7-4.8-1.1-6.3C23.3,1004.8,22.2,1004.4,21,1004.4L21,1004.4z"/>
	<path d="M21,1016.4c-3.5,0-6.9,1.2-9.7,3.5c-5.6,4.7-6.8,12.7-3.2,19c0.2,0.3,0.5,0.5,0.9,0.5H33c0.4,0,0.7-0.2,0.9-0.5
		c3.7-6.3,2.5-14.3-3.2-19C27.9,1017.5,24.5,1016.4,21,1016.4z M21,1018.4c3,0,6,1,8.5,3c4.7,3.9,5.8,10.6,2.9,16H9.6
		c-2.9-5.4-1.8-12,2.9-16C15,1019.4,18,1018.4,21,1018.4L21,1018.4z"/>
	<path d="M21,1026.4c-1.6,0-3,1.4-3,3c0,1.6,1.4,3,3,3s3-1.4,3-3C24,1027.7,22.6,1026.4,21,1026.4z M21,1028.4c0.6,0,1,0.4,1,1
		c0,0.6-0.4,1-1,1s-1-0.4-1-1C20,1028.8,20.4,1028.4,21,1028.4z"/>
	<path d="M27,1022.4c-0.3,0-0.5,0.1-0.7,0.3l-4,4c-0.4,0.4-0.4,1,0,1.4c0.4,0.4,1,0.4,1.4,0c0,0,0,0,0,0l4-4c0.4-0.4,0.4-1,0-1.4
		C27.5,1022.5,27.3,1022.4,27,1022.4L27,1022.4z"/>
	<path d="M19,1030.4c-0.3,0-0.5,0.1-0.7,0.3l-2,2c-0.4,0.4-0.4,1,0,1.4c0.4,0.4,1,0.4,1.4,0c0,0,0,0,0,0l2-2c0.4-0.4,0.4-1,0-1.4
		C19.5,1030.5,19.3,1030.4,19,1030.4z"/>
	<path d="M24,1022.4c-0.6,0-1,0.4-1,1c0,0.6,0.4,1,1,1c0,0,0,0,0,0h2v2c0,0.6,0.4,1,1,1s1-0.4,1-1c0,0,0,0,0,0v-3c0-0.6-0.4-1-1-1
		L24,1022.4L24,1022.4z"/>
	<path d="M3,1037.4c-0.6,0-1,0.4-1,1c0,0.6,0.4,1,1,1c0,0,0,0,0,0h36c0.6,0,1-0.4,1-1c0-0.6-0.4-1-1-1c0,0,0,0,0,0H3z"/>
</g>
</svg>
