<svg xmlns:dc="http://purl.org/dc/elements/1.1/" xmlns:cc="http://creativecommons.org/ns#" xmlns:rdf="http://www.w3.org/1999/02/22-rdf-syntax-ns#" xmlns:svg="http://www.w3.org/2000/svg" xmlns="http://www.w3.org/2000/svg" xmlns:sodipodi="http://sodipodi.sourceforge.net/DTD/sodipodi-0.dtd" xmlns:inkscape="http://www.inkscape.org/namespaces/inkscape" viewBox="0 0 48 60.00000125" version="1.1" x="0px" y="0px"><g transform="translate(0,-1004.3622)"><path style="color:#000000;font-style:normal;font-variant:normal;font-weight:normal;font-stretch:normal;font-size:medium;line-height:normal;font-family:sans-serif;text-indent:0;text-align:start;text-decoration:none;text-decoration-line:none;text-decoration-style:solid;text-decoration-color:#000000;letter-spacing:normal;word-spacing:normal;text-transform:none;direction:ltr;block-progression:tb;writing-mode:lr-tb;baseline-shift:baseline;text-anchor:start;white-space:normal;clip-rule:nonzero;display:inline;overflow:visible;visibility:visible;opacity:1;isolation:auto;mix-blend-mode:normal;color-interpolation:sRGB;color-interpolation-filters:linearRGB;solid-color:#000000;solid-opacity:1;fill:#000000;fill-opacity:1;fill-rule:nonzero;stroke:none;stroke-width:1.99999988;stroke-linecap:round;stroke-linejoin:round;stroke-miterlimit:4;stroke-dasharray:none;stroke-dashoffset:0;stroke-opacity:1;color-rendering:auto;image-rendering:auto;shape-rendering:auto;text-rendering:auto;enable-background:accumulate" d="m 23.026121,1014.3629 c -0.107627,0 -0.215124,0.01 -0.318334,0.041 -4.172105,-0.024 -8.09422,2.4074 -10.380018,6.0729 -3.2543448,-1.0578 -6.9257327,-0.7489 -9.4797002,1.7366 -2.69005049,2.6184 -3.56903557,6.5793 -2.23028795,10.0773 1.33870965,3.4979 4.63955025,5.8806 8.39970975,6.071 0.016923,4e-4 0.033854,4e-4 0.050777,0 l 13.4852354,0 c 6.953526,0 10.417909,-5.2952 11.299866,-10.1675 0.88389,-5.7229 -2.357428,-11.2976 -7.725937,-13.232 -1.019697,-0.3672 -2.064355,-0.5618 -3.101311,-0.5996 z m -0.07227,2.0022 0.0098,0 c 0.833354,0.031 1.666721,0.1854 2.486126,0.4805 4.45719,1.6061 7.168877,6.2421 6.427214,11.0442 -0.738079,4.7784 -4.670247,8.3073 -9.36057,8.4619 -4.458749,0.021 -8.940404,0.01 -13.4071169,0.01 -2.9752537,-0.1547 -5.5687141,-2.0321 -6.6225101,-4.7856 -1.0549755,-2.7565 -0.3696667,-5.8598 1.755717,-7.9287 2.0715328,-2.0159 5.186521,-2.1753 8.059894,-1.1212 0.660104,0.2421 1.070014,-0.04 1.400284,-0.5808 2.059972,-3.3747 5.623474,-5.7188 9.251203,-5.5865 z"/><path style="color:#000000;font-style:normal;font-variant:normal;font-weight:normal;font-stretch:normal;font-size:medium;line-height:normal;font-family:sans-serif;text-indent:0;text-align:start;text-decoration:none;text-decoration-line:none;text-decoration-style:solid;text-decoration-color:#000000;letter-spacing:normal;word-spacing:normal;text-transform:none;direction:ltr;block-progression:tb;writing-mode:lr-tb;baseline-shift:baseline;text-anchor:start;white-space:normal;clip-rule:nonzero;display:inline;overflow:visible;visibility:visible;opacity:1;isolation:auto;mix-blend-mode:normal;color-interpolation:sRGB;color-interpolation-filters:linearRGB;solid-color:#000000;solid-opacity:1;fill:#000000;fill-opacity:1;fill-rule:nonzero;stroke:none;stroke-width:2;stroke-linecap:round;stroke-linejoin:round;stroke-miterlimit:4;stroke-dasharray:none;stroke-dashoffset:0;stroke-opacity:1;color-rendering:auto;image-rendering:auto;shape-rendering:auto;text-rendering:auto;enable-background:accumulate" d="m 32.608068,1011.3877 c -2.766693,0.2179 -5.281024,1.8288 -6.487617,4.5284 -0.632958,1.2493 1.316529,2.1198 1.82411,0.8145 1.21658,-2.722 4.117124,-3.9633 6.882124,-3.1241 2.765002,0.8392 4.527632,3.6459 4.111082,6.617 -0.416561,2.971 -2.864317,5.1367 -5.743798,5.1385 -1.352213,-0.018 -1.350175,2.0203 0.002,1.9999 3.886184,0 7.173287,-2.9461 7.722194,-6.8611 0.54889,-3.915 -1.785532,-7.6781 -5.509436,-8.8084 -0.930975,-0.2826 -1.878382,-0.3773 -2.800613,-0.3047 z"/><path style="color:#000000;font-style:normal;font-variant:normal;font-weight:normal;font-stretch:normal;font-size:medium;line-height:normal;font-family:sans-serif;text-indent:0;text-align:start;text-decoration:none;text-decoration-line:none;text-decoration-style:solid;text-decoration-color:#000000;letter-spacing:normal;word-spacing:normal;text-transform:none;direction:ltr;block-progression:tb;writing-mode:lr-tb;baseline-shift:baseline;text-anchor:start;white-space:normal;clip-rule:nonzero;display:inline;overflow:visible;visibility:visible;opacity:1;isolation:auto;mix-blend-mode:normal;color-interpolation:sRGB;color-interpolation-filters:linearRGB;solid-color:#000000;solid-opacity:1;fill:#000000;fill-opacity:1;fill-rule:evenodd;stroke:none;stroke-width:2;stroke-linecap:round;stroke-linejoin:round;stroke-miterlimit:4;stroke-dasharray:none;stroke-dashoffset:0;stroke-opacity:1;color-rendering:auto;image-rendering:auto;shape-rendering:auto;text-rendering:auto;enable-background:accumulate" d="m 32.983046,1004.3625 a 1.0000402,1.0000749 0 0 0 -0.984316,1.0157 l 0,2.9706 a 1.0000402,1.0000749 0 1 0 1.999879,0 l 0,-2.9706 a 1.0000402,1.0000749 0 0 0 -1.015563,-1.0157 z"/><path style="color:#000000;font-style:normal;font-variant:normal;font-weight:normal;font-stretch:normal;font-size:medium;line-height:normal;font-family:sans-serif;text-indent:0;text-align:start;text-decoration:none;text-decoration-line:none;text-decoration-style:solid;text-decoration-color:#000000;letter-spacing:normal;word-spacing:normal;text-transform:none;direction:ltr;block-progression:tb;writing-mode:lr-tb;baseline-shift:baseline;text-anchor:start;white-space:normal;clip-rule:nonzero;display:inline;overflow:visible;visibility:visible;opacity:1;isolation:auto;mix-blend-mode:normal;color-interpolation:sRGB;color-interpolation-filters:linearRGB;solid-color:#000000;solid-opacity:1;fill:#000000;fill-opacity:1;fill-rule:evenodd;stroke:none;stroke-width:1.99999988;stroke-linecap:round;stroke-linejoin:round;stroke-miterlimit:4;stroke-dasharray:none;stroke-dashoffset:0;stroke-opacity:1;color-rendering:auto;image-rendering:auto;shape-rendering:auto;text-rendering:auto;enable-background:accumulate" d="m 42.968776,1008.3644 a 1.0000401,1.0000748 0 0 0 -0.687459,0.3027 l -1.98035,1.9784 a 1.0000401,1.0000748 0 1 0 1.413978,1.4141 l 1.98035,-1.9784 a 1.0000401,1.0000748 0 0 0 -0.726519,-1.7168 z"/><path style="color:#000000;font-style:normal;font-variant:normal;font-weight:normal;font-stretch:normal;font-size:medium;line-height:normal;font-family:sans-serif;text-indent:0;text-align:start;text-decoration:none;text-decoration-line:none;text-decoration-style:solid;text-decoration-color:#000000;letter-spacing:normal;word-spacing:normal;text-transform:none;direction:ltr;block-progression:tb;writing-mode:lr-tb;baseline-shift:baseline;text-anchor:start;white-space:normal;clip-rule:nonzero;display:inline;overflow:visible;visibility:visible;opacity:1;isolation:auto;mix-blend-mode:normal;color-interpolation:sRGB;color-interpolation-filters:linearRGB;solid-color:#000000;solid-opacity:1;fill:#000000;fill-opacity:1;fill-rule:evenodd;stroke:none;stroke-width:1.99999988;stroke-linecap:round;stroke-linejoin:round;stroke-miterlimit:4;stroke-dasharray:none;stroke-dashoffset:0;stroke-opacity:1;color-rendering:auto;image-rendering:auto;shape-rendering:auto;text-rendering:auto;enable-background:accumulate" d="m 40.998191,1026.364 a 1.0000401,1.0000748 0 0 0 -0.697224,1.7167 l 1.98035,1.9785 a 1.0000401,1.0000748 0 1 0 1.413978,-1.4141 l -1.98035,-1.9785 a 1.0000401,1.0000748 0 0 0 -0.716754,-0.3026 z"/><path style="color:#000000;font-style:normal;font-variant:normal;font-weight:normal;font-stretch:normal;font-size:medium;line-height:normal;font-family:sans-serif;text-indent:0;text-align:start;text-decoration:none;text-decoration-line:none;text-decoration-style:solid;text-decoration-color:#000000;letter-spacing:normal;word-spacing:normal;text-transform:none;direction:ltr;block-progression:tb;writing-mode:lr-tb;baseline-shift:baseline;text-anchor:start;white-space:normal;clip-rule:nonzero;display:inline;overflow:visible;visibility:visible;opacity:1;isolation:auto;mix-blend-mode:normal;color-interpolation:sRGB;color-interpolation-filters:linearRGB;solid-color:#000000;solid-opacity:1;fill:#000000;fill-opacity:1;fill-rule:evenodd;stroke:none;stroke-width:1.99999988;stroke-linecap:round;stroke-linejoin:round;stroke-miterlimit:4;stroke-dasharray:none;stroke-dashoffset:0;stroke-opacity:1;color-rendering:auto;image-rendering:auto;shape-rendering:auto;text-rendering:auto;enable-background:accumulate" d="m 44.011682,1017.3622 a 1.0000401,1.0000748 0 1 0 0,1.9999 l 2.972479,0 a 1.0000401,1.0000748 0 1 0 0,-1.9999 l -2.972479,0 z"/><path style="color:#000000;font-style:normal;font-variant:normal;font-weight:normal;font-stretch:normal;font-size:medium;line-height:normal;font-family:sans-serif;text-indent:0;text-align:start;text-decoration:none;text-decoration-line:none;text-decoration-style:solid;text-decoration-color:#000000;letter-spacing:normal;word-spacing:normal;text-transform:none;direction:ltr;block-progression:tb;writing-mode:lr-tb;baseline-shift:baseline;text-anchor:start;white-space:normal;clip-rule:nonzero;display:inline;overflow:visible;visibility:visible;opacity:1;isolation:auto;mix-blend-mode:normal;color-interpolation:sRGB;color-interpolation-filters:linearRGB;solid-color:#000000;solid-opacity:1;fill:#000000;fill-opacity:1;fill-rule:evenodd;stroke:none;stroke-width:1.99999988;stroke-linecap:round;stroke-linejoin:round;stroke-miterlimit:4;stroke-dasharray:none;stroke-dashoffset:0;stroke-opacity:1;color-rendering:auto;image-rendering:auto;shape-rendering:auto;text-rendering:auto;enable-background:accumulate" d="m 22.999268,1008.3644 a 1.0000401,1.0000748 0 0 0 -0.697225,1.7168 l 1.980351,1.9784 a 1.0000401,1.0000748 0 1 0 1.413978,-1.4141 l -1.98035,-1.9784 a 1.0000401,1.0000748 0 0 0 -0.716754,-0.3027 z"/><path style="color:#000000;font-style:normal;font-variant:normal;font-weight:normal;font-stretch:normal;font-size:medium;line-height:normal;font-family:sans-serif;text-indent:0;text-align:start;text-decoration:none;text-decoration-line:none;text-decoration-style:solid;text-decoration-color:#000000;letter-spacing:normal;word-spacing:normal;text-transform:none;direction:ltr;block-progression:tb;writing-mode:lr-tb;baseline-shift:baseline;text-anchor:start;white-space:normal;clip-rule:nonzero;display:inline;overflow:visible;visibility:visible;opacity:1;isolation:auto;mix-blend-mode:normal;color-interpolation:sRGB;color-interpolation-filters:linearRGB;solid-color:#000000;solid-opacity:1;fill:#000000;fill-opacity:1;fill-rule:nonzero;stroke:none;stroke-width:2;stroke-linecap:round;stroke-linejoin:round;stroke-miterlimit:4;stroke-dasharray:none;stroke-dashoffset:0;stroke-opacity:1;color-rendering:auto;image-rendering:auto;shape-rendering:auto;text-rendering:auto;enable-background:accumulate" d="m 8.966904,1040.3631 a 1.0000402,1.0002544 0 0 0 -0.7890153,0.4297 c 0,0 -0.5196784,0.7505 -1.0429065,1.6525 -0.2616139,0.4511 -0.5267883,0.9427 -0.738237,1.4241 -0.2114486,0.4815 -0.3964607,0.9145 -0.3964607,1.4925 0,1.6453 1.354928,3.0004 2.9998206,3.0004 1.6448919,0 2.9998199,-1.3551 2.9998199,-3.0004 0,-0.578 -0.185012,-1.011 -0.39646,-1.4925 -0.211449,-0.4814 -0.476624,-0.973 -0.738238,-1.4241 -0.523228,-0.902 -1.0429054,-1.6525 -1.0429054,-1.6525 a 1.0000402,1.0002544 0 0 0 -0.8554176,-0.4297 z m 0.033201,2.8715 c 0.066129,0.1095 0.067434,0.099 0.1347575,0.2148 0.2383561,0.411 0.4731518,0.8526 0.6366807,1.2248 0.163529,0.3724 0.2285018,0.7133 0.2285018,0.6877 0,0.5643 -0.4358268,1.0001 -0.99994,1.0001 -0.5641133,0 -0.9999401,-0.4358 -0.9999401,-1.0001 0,0.026 0.064973,-0.3153 0.2285018,-0.6877 0.163529,-0.3722 0.3983246,-0.8138 0.6366808,-1.2248 0.067324,-0.116 0.068629,-0.1053 0.1347575,-0.2148 z"/><path style="color:#000000;font-style:normal;font-variant:normal;font-weight:normal;font-stretch:normal;font-size:medium;line-height:normal;font-family:sans-serif;text-indent:0;text-align:start;text-decoration:none;text-decoration-line:none;text-decoration-style:solid;text-decoration-color:#000000;letter-spacing:normal;word-spacing:normal;text-transform:none;direction:ltr;block-progression:tb;writing-mode:lr-tb;baseline-shift:baseline;text-anchor:start;white-space:normal;clip-rule:nonzero;display:inline;overflow:visible;visibility:visible;opacity:1;isolation:auto;mix-blend-mode:normal;color-interpolation:sRGB;color-interpolation-filters:linearRGB;solid-color:#000000;solid-opacity:1;fill:#000000;fill-opacity:1;fill-rule:nonzero;stroke:none;stroke-width:2;stroke-linecap:round;stroke-linejoin:round;stroke-miterlimit:4;stroke-dasharray:none;stroke-dashoffset:0;stroke-opacity:1;color-rendering:auto;image-rendering:auto;shape-rendering:auto;text-rendering:auto;enable-background:accumulate" d="m 24.965946,1040.3631 a 1.0000402,1.0002544 0 0 0 -0.789015,0.4297 c 0,0 -0.519678,0.7505 -1.042906,1.6525 -0.261614,0.4511 -0.526788,0.9427 -0.738237,1.4241 -0.211449,0.4815 -0.396461,0.9145 -0.396461,1.4925 0,1.6453 1.354928,3.0004 2.99982,3.0004 1.644893,0 2.999821,-1.3551 2.999821,-3.0004 0,-0.578 -0.185011,-1.011 -0.39646,-1.4925 -0.21145,-0.4814 -0.476623,-0.973 -0.738237,-1.4241 -0.523228,-0.902 -1.042906,-1.6525 -1.042906,-1.6525 a 1.0000402,1.0002544 0 0 0 -0.855419,-0.4297 z m 0.0332,2.8715 c 0.06613,0.1095 0.06744,0.099 0.134759,0.2148 0.238355,0.411 0.473151,0.8526 0.63668,1.2248 0.163529,0.3724 0.228502,0.7133 0.228502,0.6877 0,0.5643 -0.435827,1.0001 -0.999941,1.0001 -0.564112,0 -0.999939,-0.4358 -0.999939,-1.0001 0,0.026 0.06498,-0.3153 0.228502,-0.6877 0.163528,-0.3722 0.398324,-0.8138 0.63668,-1.2248 0.06733,-0.116 0.06863,-0.1053 0.134757,-0.2148 z"/><path style="color:#000000;font-style:normal;font-variant:normal;font-weight:normal;font-stretch:normal;font-size:medium;line-height:normal;font-family:sans-serif;text-indent:0;text-align:start;text-decoration:none;text-decoration-line:none;text-decoration-style:solid;text-decoration-color:#000000;letter-spacing:normal;word-spacing:normal;text-transform:none;direction:ltr;block-progression:tb;writing-mode:lr-tb;baseline-shift:baseline;text-anchor:start;white-space:normal;clip-rule:nonzero;display:inline;overflow:visible;visibility:visible;opacity:1;isolation:auto;mix-blend-mode:normal;color-interpolation:sRGB;color-interpolation-filters:linearRGB;solid-color:#000000;solid-opacity:1;fill:#000000;fill-opacity:1;fill-rule:nonzero;stroke:none;stroke-width:2;stroke-linecap:round;stroke-linejoin:round;stroke-miterlimit:4;stroke-dasharray:none;stroke-dashoffset:0;stroke-opacity:1;color-rendering:auto;image-rendering:auto;shape-rendering:auto;text-rendering:auto;enable-background:accumulate" d="m 16.966425,1044.363 a 1.0000402,1.0002544 0 0 0 -0.789016,0.4297 c 0,0 -0.519678,0.7505 -1.042906,1.6525 -0.261614,0.4511 -0.526787,0.9427 -0.738237,1.4241 -0.211449,0.4815 -0.39646,0.9145 -0.39646,1.4925 0,1.6453 1.354928,3.0004 2.999821,3.0004 1.644892,0 2.99982,-1.3551 2.99982,-3.0004 0,-0.578 -0.185012,-1.011 -0.396461,-1.4925 -0.211449,-0.4814 -0.476623,-0.973 -0.738237,-1.4241 -0.523228,-0.902 -1.042906,-1.6525 -1.042906,-1.6525 a 1.0000402,1.0002544 0 0 0 -0.855418,-0.4297 z m 0.0332,2.8715 c 0.06613,0.1095 0.06744,0.099 0.134757,0.2148 0.238356,0.411 0.473152,0.8526 0.63668,1.2248 0.163529,0.3724 0.228502,0.7133 0.228502,0.6877 0,0.5643 -0.435827,1.0001 -0.999939,1.0001 -0.564114,0 -0.999941,-0.4358 -0.999941,-1.0001 0,0.026 0.06498,-0.3153 0.228502,-0.6877 0.163529,-0.3722 0.398325,-0.8138 0.63668,-1.2248 0.06733,-0.116 0.06863,-0.1053 0.134759,-0.2148 z"/></g><text x="0" y="63.000001" fill="#000000" font-size="5px" font-weight="bold" font-family="'Helvetica Neue', Helvetica, Arial-Unicode, Arial, Sans-serif">Created by anbileru adaleru</text><text x="0" y="68.000001" fill="#000000" font-size="5px" font-weight="bold" font-family="'Helvetica Neue', Helvetica, Arial-Unicode, Arial, Sans-serif">from the Noun Project</text></svg>