<svg xmlns:dc="http://purl.org/dc/elements/1.1/" xmlns:cc="http://creativecommons.org/ns#" xmlns:rdf="http://www.w3.org/1999/02/22-rdf-syntax-ns#" xmlns:svg="http://www.w3.org/2000/svg" xmlns="http://www.w3.org/2000/svg" xmlns:sodipodi="http://sodipodi.sourceforge.net/DTD/sodipodi-0.dtd" xmlns:inkscape="http://www.inkscape.org/namespaces/inkscape" viewBox="0 0 48 60.00000125" version="1.1" x="0px" y="0px"><g transform="translate(0,-1004.3622)"><path style="color:#000000;font-style:normal;font-variant:normal;font-weight:normal;font-stretch:normal;font-size:medium;line-height:normal;font-family:sans-serif;text-indent:0;text-align:start;text-decoration:none;text-decoration-line:none;text-decoration-style:solid;text-decoration-color:#000000;letter-spacing:normal;word-spacing:normal;text-transform:none;direction:ltr;block-progression:tb;writing-mode:lr-tb;baseline-shift:baseline;text-anchor:start;white-space:normal;clip-rule:nonzero;display:inline;overflow:visible;visibility:visible;opacity:1;isolation:auto;mix-blend-mode:normal;color-interpolation:sRGB;color-interpolation-filters:linearRGB;solid-color:#000000;solid-opacity:1;fill:#000000;fill-opacity:1;fill-rule:evenodd;stroke:none;stroke-width:2;stroke-linecap:round;stroke-linejoin:round;stroke-miterlimit:4;stroke-dasharray:none;stroke-dashoffset:0;stroke-opacity:1;color-rendering:auto;image-rendering:auto;shape-rendering:auto;text-rendering:auto;enable-background:accumulate" d="m 31.990234,1038.3578 a 1.0001,0.99992033 0 0 0 -0.757812,0.3691 l -5,5.9872 a 1.0001,0.99992033 0 0 0 0.93164,1.6267 l 3.339844,-0.5566 -3.271484,3.9192 a 1.0001,0.99992033 0 1 0 1.535156,1.2811 l 5,-5.9873 a 1.0001,0.99992033 0 0 0 -0.93164,-1.6266 l -3.339844,0.5565 3.271484,-3.9192 a 1.0001,0.99992033 0 0 0 -0.777344,-1.6501 z"/><path style="color:#000000;font-style:normal;font-variant:normal;font-weight:normal;font-stretch:normal;font-size:medium;line-height:normal;font-family:sans-serif;text-indent:0;text-align:start;text-decoration:none;text-decoration-line:none;text-decoration-style:solid;text-decoration-color:#000000;letter-spacing:normal;word-spacing:normal;text-transform:none;direction:ltr;block-progression:tb;writing-mode:lr-tb;baseline-shift:baseline;text-anchor:start;white-space:normal;clip-rule:nonzero;display:inline;overflow:visible;visibility:visible;opacity:1;isolation:auto;mix-blend-mode:normal;color-interpolation:sRGB;color-interpolation-filters:linearRGB;solid-color:#000000;solid-opacity:1;fill:#000000;fill-opacity:1;fill-rule:evenodd;stroke:none;stroke-width:2;stroke-linecap:round;stroke-linejoin:round;stroke-miterlimit:4;stroke-dasharray:none;stroke-dashoffset:0;stroke-opacity:1;color-rendering:auto;image-rendering:auto;shape-rendering:auto;text-rendering:auto;enable-background:accumulate" d="M 40.984375,1042.3559 A 1.0001,0.99983535 0 0 0 40,1043.3713 l 0,6.9689 a 1.0001,0.99983535 0 1 0 2,0 l 0,-6.9689 a 1.0001,0.99983535 0 0 0 -1.015625,-1.0154 z"/><path style="color:#000000;font-style:normal;font-variant:normal;font-weight:normal;font-stretch:normal;font-size:medium;line-height:normal;font-family:sans-serif;text-indent:0;text-align:start;text-decoration:none;text-decoration-line:none;text-decoration-style:solid;text-decoration-color:#000000;letter-spacing:normal;word-spacing:normal;text-transform:none;direction:ltr;block-progression:tb;writing-mode:lr-tb;baseline-shift:baseline;text-anchor:start;white-space:normal;clip-rule:nonzero;display:inline;overflow:visible;visibility:visible;opacity:1;isolation:auto;mix-blend-mode:normal;color-interpolation:sRGB;color-interpolation-filters:linearRGB;solid-color:#000000;solid-opacity:1;fill:#000000;fill-opacity:1;fill-rule:evenodd;stroke:none;stroke-width:2;stroke-linecap:round;stroke-linejoin:round;stroke-miterlimit:4;stroke-dasharray:none;stroke-dashoffset:0;stroke-opacity:1;color-rendering:auto;image-rendering:auto;shape-rendering:auto;text-rendering:auto;enable-background:accumulate" d="m 37.979322,1044.3561 a 0.99816088,0.99850574 0 0 0 -0.411311,1.8993 l 5.963026,2.9816 a 0.99816088,0.99850574 0 1 0 0.890848,-1.7863 l -5.963026,-2.9816 a 0.99816088,0.99850574 0 0 0 -0.479537,-0.113 z"/><path style="color:#000000;font-style:normal;font-variant:normal;font-weight:normal;font-stretch:normal;font-size:medium;line-height:normal;font-family:sans-serif;text-indent:0;text-align:start;text-decoration:none;text-decoration-line:none;text-decoration-style:solid;text-decoration-color:#000000;letter-spacing:normal;word-spacing:normal;text-transform:none;direction:ltr;block-progression:tb;writing-mode:lr-tb;baseline-shift:baseline;text-anchor:start;white-space:normal;clip-rule:nonzero;display:inline;overflow:visible;visibility:visible;opacity:1;isolation:auto;mix-blend-mode:normal;color-interpolation:sRGB;color-interpolation-filters:linearRGB;solid-color:#000000;solid-opacity:1;fill:#000000;fill-opacity:1;fill-rule:evenodd;stroke:none;stroke-width:2;stroke-linecap:round;stroke-linejoin:round;stroke-miterlimit:4;stroke-dasharray:none;stroke-dashoffset:0;stroke-opacity:1;color-rendering:auto;image-rendering:auto;shape-rendering:auto;text-rendering:auto;enable-background:accumulate" d="m 43.991757,1044.3557 a 0.99819578,0.99852654 0 0 0 -0.450313,0.113 l -5.963234,2.9817 a 0.99819578,0.99852654 0 1 0 0.890878,1.7863 l 5.963235,-2.9817 a 0.99819578,0.99852654 0 0 0 -0.440566,-1.8993 z"/><path style="color:#000000;font-style:normal;font-variant:normal;font-weight:normal;font-stretch:normal;font-size:medium;line-height:normal;font-family:sans-serif;text-indent:0;text-align:start;text-decoration:none;text-decoration-line:none;text-decoration-style:solid;text-decoration-color:#000000;letter-spacing:normal;word-spacing:normal;text-transform:none;direction:ltr;block-progression:tb;writing-mode:lr-tb;baseline-shift:baseline;text-anchor:start;white-space:normal;clip-rule:nonzero;display:inline;overflow:visible;visibility:visible;opacity:1;isolation:auto;mix-blend-mode:normal;color-interpolation:sRGB;color-interpolation-filters:linearRGB;solid-color:#000000;solid-opacity:1;fill:#000000;fill-opacity:1;fill-rule:nonzero;stroke:none;stroke-width:2;stroke-linecap:round;stroke-linejoin:round;stroke-miterlimit:4;stroke-dasharray:none;stroke-dashoffset:0;stroke-opacity:1;color-rendering:auto;image-rendering:auto;shape-rendering:auto;text-rendering:auto;enable-background:accumulate" d="m 27.631055,1006.9706 c 3.79804,1.4085 6.545458,4.5947 7.686855,8.3885 0.376837,0 0.731728,-0.04 1.074907,-0.063 l 0,0 c 1.095211,0.039 2.198358,0.2412 3.275625,0.6232 5.675956,2.0131 9.115549,7.8282 8.178296,13.8017 -0.911325,5.808 -5.735966,10.1265 -11.532238,10.506 -5.148598,0.2174 -10.37,0.096 -14.807865,0.092 -3.968821,-0.1978 -7.457596,-2.6729 -8.875321,-6.3197 -0.213883,-0.5501 -0.367368,-1.1122 -0.475778,-1.678 l -2.600138,0 c -0.01761,5e-4 -0.03525,5e-4 -0.05286,0 -3.975894,-0.2073 -7.449906,-2.7999 -8.85378296,-6.5756 -1.403962,-3.7758 -0.487275,-8.0392 2.34364896,-10.8753 2.690414,-2.6951 6.587035,-3.0342 10.032459,-1.8754 2.405385,-3.9976 6.569775,-6.6629 10.999679,-6.6322 1.205874,0.011 2.585888,0.2388 3.606512,0.6095 z m -3.334364,1.3497 -0.02153,0 c -3.856832,-0.1446 -7.783679,2.3349 -9.850372,6.1284 -0.04964,0.091 -0.113046,0.173 -0.187961,0.2443 l -0.158595,0.1504 c -0.28568,0.2723 -0.705065,0.3519 -1.07099,0.203 -3.031313,-1.2385 -6.372054,-0.9965 -8.595336,1.2307 -2.273624,2.2779 -3.017007,5.721 -1.883533,8.7695 1.132335,3.0453 3.905913,5.1016 7.070103,5.2707 l 2.384766,0 c 2.37e-4,-0.011 0.0017,-0.021 0.002,-0.031 0.007,-0.2953 0.02865,-0.5885 0.06265,-0.8811 0.0018,-0.016 0.0039,-0.031 0.0059,-0.047 0.112637,-0.9299 0.360221,-1.8406 0.736184,-2.7039 0.530327,-1.2602 1.295884,-2.2134 2.200631,-3.1627 2.701523,-2.5881 6.57989,-2.906 10.02267,-1.7992 1.504383,-2.3865 3.683657,-4.2572 6.183159,-5.3331 0.682237,-0.3037 1.39082,-0.5044 2.071496,-0.6994 -1.013125,-3.126 -3.241348,-5.6683 -6.335878,-6.816 -0.868632,-0.322 -1.752169,-0.4885 -2.635384,-0.5236 z m 12.041301,8.9767 -0.01567,0 c -0.512413,-0.018 -1.025138,0.01 -1.535021,0.076 -0.0264,0.01 -0.04714,0.022 -0.0744,0.025 -0.798227,0.1034 -1.586731,0.3138 -2.35148,0.6095 -2.510935,1.0385 -4.593877,2.8376 -5.934491,5.1632 -0.05101,0.09 -0.11574,0.172 -0.191879,0.2423 l -0.14097,0.1289 -0.01567,0.016 c -0.01895,0.017 -0.03854,0.033 -0.05873,0.049 -0.02154,0.017 -0.04375,0.032 -0.06657,0.047 -0.0084,0.01 -0.01688,0.012 -0.02545,0.018 l -0.0098,0.01 c -0.02236,0.013 -0.04521,0.026 -0.06853,0.037 -0.0237,0.012 -0.04787,0.023 -0.07245,0.033 -0.0097,0 -0.01952,0.01 -0.02937,0.012 -0.01618,0.01 -0.0325,0.011 -0.04895,0.016 -0.01423,0.01 -0.0286,0.011 -0.04308,0.016 -0.0233,0.01 -0.0468,0.011 -0.07048,0.016 -6.01e-4,2e-4 -0.0014,-1e-4 -0.002,0 -0.193525,0.045 -0.398971,0.038 -0.591297,-0.037 -2.848655,-1.1154 -5.988171,-0.9727 -8.195916,0.8028 -0.147183,0.1183 -0.29025,0.244 -0.428788,0.3769 -0.0064,0.01 -0.01125,0.013 -0.01762,0.02 -1.595745,1.5529 -2.299042,3.5587 -2.349522,5.716 0.0037,0.1639 0.0033,0.3285 0.01762,0.4924 0.06298,0.7068 0.217101,1.4127 0.48361,2.0981 1.125945,2.8963 3.903388,4.8791 7.095557,5.0421 l 14.165661,0 c 0.03116,0 0.06251,-0.01 0.09398,-0.01 5.022217,-0.1631 9.22183,-3.882 10.008964,-8.8984 0.790952,-5.0411 -2.09821,-9.916 -6.868437,-11.6079 -0.876295,-0.3107 -1.767371,-0.4726 -2.658875,-0.5059 z"/><path d="M 18.984375,1042.3559 A 1.0001,0.99983535 0 0 0 18,1043.3713 l 0,6.9689 a 1.0001,0.99983535 0 1 0 2,0 l 0,-6.9689 a 1.0001,0.99983535 0 0 0 -1.015625,-1.0154 z" style="color:#000000;font-style:normal;font-variant:normal;font-weight:normal;font-stretch:normal;font-size:medium;line-height:normal;font-family:sans-serif;text-indent:0;text-align:start;text-decoration:none;text-decoration-line:none;text-decoration-style:solid;text-decoration-color:#000000;letter-spacing:normal;word-spacing:normal;text-transform:none;direction:ltr;block-progression:tb;writing-mode:lr-tb;baseline-shift:baseline;text-anchor:start;white-space:normal;clip-rule:nonzero;display:inline;overflow:visible;visibility:visible;opacity:1;isolation:auto;mix-blend-mode:normal;color-interpolation:sRGB;color-interpolation-filters:linearRGB;solid-color:#000000;solid-opacity:1;fill:#000000;fill-opacity:1;fill-rule:evenodd;stroke:none;stroke-width:2;stroke-linecap:round;stroke-linejoin:round;stroke-miterlimit:4;stroke-dasharray:none;stroke-dashoffset:0;stroke-opacity:1;color-rendering:auto;image-rendering:auto;shape-rendering:auto;text-rendering:auto;enable-background:accumulate"/><path d="m 15.979322,1044.3561 a 0.99816088,0.99850574 0 0 0 -0.411311,1.8993 l 5.963026,2.9816 a 0.99816088,0.99850574 0 1 0 0.890848,-1.7863 l -5.963026,-2.9816 a 0.99816088,0.99850574 0 0 0 -0.479537,-0.113 z" style="color:#000000;font-style:normal;font-variant:normal;font-weight:normal;font-stretch:normal;font-size:medium;line-height:normal;font-family:sans-serif;text-indent:0;text-align:start;text-decoration:none;text-decoration-line:none;text-decoration-style:solid;text-decoration-color:#000000;letter-spacing:normal;word-spacing:normal;text-transform:none;direction:ltr;block-progression:tb;writing-mode:lr-tb;baseline-shift:baseline;text-anchor:start;white-space:normal;clip-rule:nonzero;display:inline;overflow:visible;visibility:visible;opacity:1;isolation:auto;mix-blend-mode:normal;color-interpolation:sRGB;color-interpolation-filters:linearRGB;solid-color:#000000;solid-opacity:1;fill:#000000;fill-opacity:1;fill-rule:evenodd;stroke:none;stroke-width:2;stroke-linecap:round;stroke-linejoin:round;stroke-miterlimit:4;stroke-dasharray:none;stroke-dashoffset:0;stroke-opacity:1;color-rendering:auto;image-rendering:auto;shape-rendering:auto;text-rendering:auto;enable-background:accumulate"/><path d="m 21.991757,1044.3557 a 0.99819578,0.99852654 0 0 0 -0.450313,0.113 l -5.963234,2.9817 a 0.99819578,0.99852654 0 1 0 0.890878,1.7863 l 5.963235,-2.9817 a 0.99819578,0.99852654 0 0 0 -0.440566,-1.8993 z" style="color:#000000;font-style:normal;font-variant:normal;font-weight:normal;font-stretch:normal;font-size:medium;line-height:normal;font-family:sans-serif;text-indent:0;text-align:start;text-decoration:none;text-decoration-line:none;text-decoration-style:solid;text-decoration-color:#000000;letter-spacing:normal;word-spacing:normal;text-transform:none;direction:ltr;block-progression:tb;writing-mode:lr-tb;baseline-shift:baseline;text-anchor:start;white-space:normal;clip-rule:nonzero;display:inline;overflow:visible;visibility:visible;opacity:1;isolation:auto;mix-blend-mode:normal;color-interpolation:sRGB;color-interpolation-filters:linearRGB;solid-color:#000000;solid-opacity:1;fill:#000000;fill-opacity:1;fill-rule:evenodd;stroke:none;stroke-width:2;stroke-linecap:round;stroke-linejoin:round;stroke-miterlimit:4;stroke-dasharray:none;stroke-dashoffset:0;stroke-opacity:1;color-rendering:auto;image-rendering:auto;shape-rendering:auto;text-rendering:auto;enable-background:accumulate"/></g><text x="0" y="63.000001" fill="#000000" font-size="5px" font-weight="bold" font-family="'Helvetica Neue', Helvetica, Arial-Unicode, Arial, Sans-serif">Created by anbileru adaleru</text><text x="0" y="68.000001" fill="#000000" font-size="5px" font-weight="bold" font-family="'Helvetica Neue', Helvetica, Arial-Unicode, Arial, Sans-serif">from the Noun Project</text></svg>