<svg xmlns:dc="http://purl.org/dc/elements/1.1/" xmlns:cc="http://creativecommons.org/ns#" xmlns:rdf="http://www.w3.org/1999/02/22-rdf-syntax-ns#" xmlns:svg="http://www.w3.org/2000/svg" xmlns="http://www.w3.org/2000/svg" xmlns:sodipodi="http://sodipodi.sourceforge.net/DTD/sodipodi-0.dtd" xmlns:inkscape="http://www.inkscape.org/namespaces/inkscape" viewBox="0 0 48 60.00000125" version="1.1" x="0px" y="0px"><g transform="translate(0,-1004.3622)"><g><path d="m 5.98232,1014.3622 a 0.99999624,0.99940076 0 0 0 -0.5917355,1.7916 c 0,0 0.6700466,0.5295 1.5408556,1.0599 0.870809,0.5305 1.8879868,1.1359 3.0758529,1.1359 1.187865,0 1.989896,-0.711 2.616915,-1.2062 0.62702,-0.4952 1.079154,-0.7748 1.378764,-0.7748 0.299609,0 0.749792,0.2796 1.37681,0.7748 0.627019,0.4952 1.431004,1.2062 2.618869,1.2062 1.187866,0 1.989897,-0.711 2.616916,-1.2062 0.627018,-0.4952 1.0772,-0.7748 1.37681,-0.7748 0.29961,0 0.751745,0.2796 1.378763,0.7748 0.627019,0.4952 1.42905,1.2062 2.616916,1.2062 1.187865,0 1.991849,-0.711 2.618869,-1.2062 0.627018,-0.4952 1.0772,-0.7748 1.376809,-0.7748 0.29961,0 0.751746,0.2796 1.378764,0.7748 0.627018,0.4952 1.429051,1.2062 2.616916,1.2062 1.187642,0 1.991787,-0.7111 2.618868,-1.2062 0.627083,-0.4951 1.078776,-0.7746 1.378764,-0.7748 0.302326,-2e-4 1.284675,0.3848 2.042757,0.8451 0.758081,0.4602 1.345563,0.9212 1.345563,0.9212 a 0.99999624,0.99940076 0 1 0 1.238153,-1.5692 c 0,0 -0.671013,-0.5294 -1.544761,-1.0599 -0.873749,-0.5304 -1.894358,-1.1366 -3.083665,-1.1358 -1.187488,8e-4 -1.989962,0.7111 -2.616916,1.2062 -0.626954,0.495 -1.078929,0.7748 -1.378763,0.7748 -0.299611,0 -0.749791,-0.2796 -1.376809,-0.7748 -0.62702,-0.4952 -1.431004,-1.2062 -2.618871,-1.2062 -1.187865,0 -1.989897,0.7109 -2.616915,1.2062 -0.627018,0.4952 -1.079153,0.7748 -1.378763,0.7748 -0.299611,0 -0.749791,-0.2796 -1.37681,-0.7748 -0.627019,-0.4952 -1.431002,-1.2062 -2.618869,-1.2062 -1.187865,0 -1.989898,0.7109 -2.616916,1.2062 -0.627019,0.4952 -1.0772,0.7748 -1.37681,0.7748 -0.299611,0 -0.751744,-0.2796 -1.378763,-0.7748 -0.627019,-0.4952 -1.42905,-1.2062 -2.616916,-1.2062 -1.187866,0 -1.991851,0.7109 -2.618869,1.2062 -0.627018,0.4952 -1.0772,0.7748 -1.37681,0.7748 -0.2996102,0 -1.279848,-0.3852 -2.0349453,-0.8452 -0.7550972,-0.4599 -1.3416576,-0.9212 -1.3416576,-0.9212 A 0.99999624,0.99940076 0 0 0 5.98232,1014.3622 Z" style="color:#000000;font-style:normal;font-variant:normal;font-weight:normal;font-stretch:normal;font-size:medium;line-height:normal;font-family:sans-serif;text-indent:0;text-align:start;text-decoration:none;text-decoration-line:none;text-decoration-style:solid;text-decoration-color:#000000;letter-spacing:normal;word-spacing:normal;text-transform:none;direction:ltr;block-progression:tb;writing-mode:lr-tb;baseline-shift:baseline;text-anchor:start;white-space:normal;clip-rule:nonzero;display:inline;overflow:visible;visibility:visible;opacity:1;isolation:auto;mix-blend-mode:normal;color-interpolation:sRGB;color-interpolation-filters:linearRGB;solid-color:#000000;solid-opacity:1;fill:#000000;fill-opacity:1;fill-rule:evenodd;stroke:none;stroke-width:2;stroke-linecap:round;stroke-linejoin:round;stroke-miterlimit:4;stroke-dasharray:none;stroke-dashoffset:0;stroke-opacity:1;color-rendering:auto;image-rendering:auto;shape-rendering:auto;text-rendering:auto;enable-background:accumulate"/><path style="color:#000000;font-style:normal;font-variant:normal;font-weight:normal;font-stretch:normal;font-size:medium;line-height:normal;font-family:sans-serif;text-indent:0;text-align:start;text-decoration:none;text-decoration-line:none;text-decoration-style:solid;text-decoration-color:#000000;letter-spacing:normal;word-spacing:normal;text-transform:none;direction:ltr;block-progression:tb;writing-mode:lr-tb;baseline-shift:baseline;text-anchor:start;white-space:normal;clip-rule:nonzero;display:inline;overflow:visible;visibility:visible;opacity:1;isolation:auto;mix-blend-mode:normal;color-interpolation:sRGB;color-interpolation-filters:linearRGB;solid-color:#000000;solid-opacity:1;fill:#000000;fill-opacity:1;fill-rule:evenodd;stroke:none;stroke-width:2;stroke-linecap:round;stroke-linejoin:round;stroke-miterlimit:4;stroke-dasharray:none;stroke-dashoffset:0;stroke-opacity:1;color-rendering:auto;image-rendering:auto;shape-rendering:auto;text-rendering:auto;enable-background:accumulate" d="m 5.98232,1020.3622 a 0.99999624,0.99940076 0 0 0 -0.5917355,1.7916 c 0,0 0.6700466,0.5295 1.5408556,1.0599 0.870809,0.5305 1.8879868,1.1359 3.0758529,1.1359 1.187865,0 1.989896,-0.711 2.616915,-1.2062 0.62702,-0.4952 1.079154,-0.7748 1.378764,-0.7748 0.299609,0 0.749792,0.2796 1.37681,0.7748 0.627019,0.4952 1.431004,1.2062 2.618869,1.2062 1.187866,0 1.989897,-0.711 2.616916,-1.2062 0.627018,-0.4952 1.0772,-0.7748 1.37681,-0.7748 0.29961,0 0.751745,0.2796 1.378763,0.7748 0.627019,0.4952 1.42905,1.2062 2.616916,1.2062 1.187865,0 1.991849,-0.711 2.618869,-1.2062 0.627018,-0.4952 1.0772,-0.7748 1.376809,-0.7748 0.29961,0 0.751746,0.2796 1.378764,0.7748 0.627018,0.4952 1.429051,1.2062 2.616916,1.2062 1.187642,0 1.991787,-0.7111 2.618868,-1.2062 0.627083,-0.4951 1.078776,-0.7746 1.378764,-0.7748 0.302326,-2e-4 1.284675,0.3848 2.042757,0.8451 0.758081,0.4602 1.345563,0.9212 1.345563,0.9212 a 0.99999624,0.99940076 0 1 0 1.238153,-1.5692 c 0,0 -0.671013,-0.5294 -1.544761,-1.0599 -0.873749,-0.5304 -1.894358,-1.1366 -3.083665,-1.1358 -1.187488,8e-4 -1.989962,0.7111 -2.616916,1.2062 -0.626954,0.495 -1.078929,0.7748 -1.378763,0.7748 -0.299611,0 -0.749791,-0.2796 -1.376809,-0.7748 -0.62702,-0.4952 -1.431004,-1.2062 -2.618871,-1.2062 -1.187865,0 -1.989897,0.7109 -2.616915,1.2062 -0.627018,0.4952 -1.079153,0.7748 -1.378763,0.7748 -0.299611,0 -0.749791,-0.2796 -1.37681,-0.7748 -0.627019,-0.4952 -1.431002,-1.2062 -2.618869,-1.2062 -1.187865,0 -1.989898,0.7109 -2.616916,1.2062 -0.627019,0.4952 -1.0772,0.7748 -1.37681,0.7748 -0.299611,0 -0.751744,-0.2796 -1.378763,-0.7748 -0.627019,-0.4952 -1.42905,-1.2062 -2.616916,-1.2062 -1.187866,0 -1.991851,0.7109 -2.618869,1.2062 -0.627018,0.4952 -1.0772,0.7748 -1.37681,0.7748 -0.2996102,0 -1.279848,-0.3852 -2.0349453,-0.8452 -0.7550972,-0.4599 -1.3416576,-0.9212 -1.3416576,-0.9212 A 0.99999624,0.99940076 0 0 0 5.98232,1020.3622 Z"/></g><path d="m 5.98232,1026.3622 a 0.99999624,0.99940076 0 0 0 -0.5917355,1.7916 c 0,0 0.6700466,0.5295 1.5408556,1.0599 0.870809,0.5305 1.8879868,1.1359 3.0758529,1.1359 1.187865,0 1.989896,-0.711 2.616915,-1.2062 0.62702,-0.4952 1.079154,-0.7748 1.378764,-0.7748 0.299609,0 0.749792,0.2796 1.37681,0.7748 0.627019,0.4952 1.431004,1.2062 2.618869,1.2062 1.187866,0 1.989897,-0.711 2.616916,-1.2062 0.627018,-0.4952 1.0772,-0.7748 1.37681,-0.7748 0.29961,0 0.751745,0.2796 1.378763,0.7748 0.627019,0.4952 1.42905,1.2062 2.616916,1.2062 1.187865,0 1.991849,-0.711 2.618869,-1.2062 0.627018,-0.4952 1.0772,-0.7748 1.376809,-0.7748 0.29961,0 0.751746,0.2796 1.378764,0.7748 0.627018,0.4952 1.429051,1.2062 2.616916,1.2062 1.187642,0 1.991787,-0.7111 2.618868,-1.2062 0.627083,-0.4951 1.078776,-0.7746 1.378764,-0.7748 0.302326,-2e-4 1.284675,0.3848 2.042757,0.8451 0.758081,0.4602 1.345563,0.9212 1.345563,0.9212 a 0.99999624,0.99940076 0 1 0 1.238153,-1.5692 c 0,0 -0.671013,-0.5294 -1.544761,-1.0599 -0.873749,-0.5304 -1.894358,-1.1366 -3.083665,-1.1358 -1.187488,8e-4 -1.989962,0.7111 -2.616916,1.2062 -0.626954,0.495 -1.078929,0.7748 -1.378763,0.7748 -0.299611,0 -0.749791,-0.2796 -1.376809,-0.7748 -0.62702,-0.4952 -1.431004,-1.2062 -2.618871,-1.2062 -1.187865,0 -1.989897,0.7109 -2.616915,1.2062 -0.627018,0.4952 -1.079153,0.7748 -1.378763,0.7748 -0.299611,0 -0.749791,-0.2796 -1.37681,-0.7748 -0.627019,-0.4952 -1.431002,-1.2062 -2.618869,-1.2062 -1.187865,0 -1.989898,0.7109 -2.616916,1.2062 -0.627019,0.4952 -1.0772,0.7748 -1.37681,0.7748 -0.299611,0 -0.751744,-0.2796 -1.378763,-0.7748 -0.627019,-0.4952 -1.42905,-1.2062 -2.616916,-1.2062 -1.187866,0 -1.991851,0.7109 -2.618869,1.2062 -0.627018,0.4952 -1.0772,0.7748 -1.37681,0.7748 -0.2996102,0 -1.279848,-0.3852 -2.0349453,-0.8452 -0.7550972,-0.4599 -1.3416576,-0.9212 -1.3416576,-0.9212 A 0.99999624,0.99940076 0 0 0 5.98232,1026.3622 Z" style="color:#000000;font-style:normal;font-variant:normal;font-weight:normal;font-stretch:normal;font-size:medium;line-height:normal;font-family:sans-serif;text-indent:0;text-align:start;text-decoration:none;text-decoration-line:none;text-decoration-style:solid;text-decoration-color:#000000;letter-spacing:normal;word-spacing:normal;text-transform:none;direction:ltr;block-progression:tb;writing-mode:lr-tb;baseline-shift:baseline;text-anchor:start;white-space:normal;clip-rule:nonzero;display:inline;overflow:visible;visibility:visible;opacity:1;isolation:auto;mix-blend-mode:normal;color-interpolation:sRGB;color-interpolation-filters:linearRGB;solid-color:#000000;solid-opacity:1;fill:#000000;fill-opacity:1;fill-rule:evenodd;stroke:none;stroke-width:2;stroke-linecap:round;stroke-linejoin:round;stroke-miterlimit:4;stroke-dasharray:none;stroke-dashoffset:0;stroke-opacity:1;color-rendering:auto;image-rendering:auto;shape-rendering:auto;text-rendering:auto;enable-background:accumulate"/><path style="color:#000000;font-style:normal;font-variant:normal;font-weight:normal;font-stretch:normal;font-size:medium;line-height:normal;font-family:sans-serif;text-indent:0;text-align:start;text-decoration:none;text-decoration-line:none;text-decoration-style:solid;text-decoration-color:#000000;letter-spacing:normal;word-spacing:normal;text-transform:none;direction:ltr;block-progression:tb;writing-mode:lr-tb;baseline-shift:baseline;text-anchor:start;white-space:normal;clip-rule:nonzero;display:inline;overflow:visible;visibility:visible;opacity:1;isolation:auto;mix-blend-mode:normal;color-interpolation:sRGB;color-interpolation-filters:linearRGB;solid-color:#000000;solid-opacity:1;fill:#000000;fill-opacity:1;fill-rule:evenodd;stroke:none;stroke-width:2;stroke-linecap:round;stroke-linejoin:round;stroke-miterlimit:4;stroke-dasharray:none;stroke-dashoffset:0;stroke-opacity:1;color-rendering:auto;image-rendering:auto;shape-rendering:auto;text-rendering:auto;enable-background:accumulate" d="m 5.98232,1032.3622 a 0.99999624,0.99940076 0 0 0 -0.5917355,1.7916 c 0,0 0.6700466,0.5295 1.5408556,1.0599 0.870809,0.5305 1.8879868,1.1359 3.0758529,1.1359 1.187865,0 1.989896,-0.711 2.616915,-1.2062 0.62702,-0.4952 1.079154,-0.7748 1.378764,-0.7748 0.299609,0 0.749792,0.2796 1.37681,0.7748 0.627019,0.4952 1.431004,1.2062 2.618869,1.2062 1.187866,0 1.989897,-0.711 2.616916,-1.2062 0.627018,-0.4952 1.0772,-0.7748 1.37681,-0.7748 0.29961,0 0.751745,0.2796 1.378763,0.7748 0.627019,0.4952 1.42905,1.2062 2.616916,1.2062 1.187865,0 1.991849,-0.711 2.618869,-1.2062 0.627018,-0.4952 1.0772,-0.7748 1.376809,-0.7748 0.29961,0 0.751746,0.2796 1.378764,0.7748 0.627018,0.4952 1.429051,1.2062 2.616916,1.2062 1.187642,0 1.991787,-0.7111 2.618868,-1.2062 0.627083,-0.4951 1.078776,-0.7746 1.378764,-0.7748 0.302326,-2e-4 1.284675,0.3848 2.042757,0.8451 0.758081,0.4602 1.345563,0.9212 1.345563,0.9212 a 0.99999624,0.99940076 0 1 0 1.238153,-1.5692 c 0,0 -0.671013,-0.5294 -1.544761,-1.0599 -0.873749,-0.5304 -1.894358,-1.1366 -3.083665,-1.1358 -1.187488,8e-4 -1.989962,0.7111 -2.616916,1.2062 -0.626954,0.495 -1.078929,0.7748 -1.378763,0.7748 -0.299611,0 -0.749791,-0.2796 -1.376809,-0.7748 -0.62702,-0.4952 -1.431004,-1.2062 -2.618871,-1.2062 -1.187865,0 -1.989897,0.7109 -2.616915,1.2062 -0.627018,0.4952 -1.079153,0.7748 -1.378763,0.7748 -0.299611,0 -0.749791,-0.2796 -1.37681,-0.7748 -0.627019,-0.4952 -1.431002,-1.2062 -2.618869,-1.2062 -1.187865,0 -1.989898,0.7109 -2.616916,1.2062 -0.627019,0.4952 -1.0772,0.7748 -1.37681,0.7748 -0.299611,0 -0.751744,-0.2796 -1.378763,-0.7748 -0.627019,-0.4952 -1.42905,-1.2062 -2.616916,-1.2062 -1.187866,0 -1.991851,0.7109 -2.618869,1.2062 -0.627018,0.4952 -1.0772,0.7748 -1.37681,0.7748 -0.2996102,0 -1.279848,-0.3852 -2.0349453,-0.8452 -0.7550972,-0.4599 -1.3416576,-0.9212 -1.3416576,-0.9212 A 0.99999624,0.99940076 0 0 0 5.98232,1032.3622 Z"/><path d="m 5.98232,1038.3622 a 0.99999624,0.99940076 0 0 0 -0.5917355,1.7916 c 0,0 0.6700466,0.5295 1.5408556,1.0599 0.870809,0.5305 1.8879868,1.1359 3.0758529,1.1359 1.187865,0 1.989896,-0.711 2.616915,-1.2062 0.62702,-0.4952 1.079154,-0.7748 1.378764,-0.7748 0.299609,0 0.749792,0.2796 1.37681,0.7748 0.627019,0.4952 1.431004,1.2062 2.618869,1.2062 1.187866,0 1.989897,-0.711 2.616916,-1.2062 0.627018,-0.4952 1.0772,-0.7748 1.37681,-0.7748 0.29961,0 0.751745,0.2796 1.378763,0.7748 0.627019,0.4952 1.42905,1.2062 2.616916,1.2062 1.187865,0 1.991849,-0.711 2.618869,-1.2062 0.627018,-0.4952 1.0772,-0.7748 1.376809,-0.7748 0.29961,0 0.751746,0.2796 1.378764,0.7748 0.627018,0.4952 1.429051,1.2062 2.616916,1.2062 1.187642,0 1.991787,-0.7111 2.618868,-1.2062 0.627083,-0.4951 1.078776,-0.7746 1.378764,-0.7748 0.302326,-2e-4 1.284675,0.3848 2.042757,0.8451 0.758081,0.4602 1.345563,0.9212 1.345563,0.9212 a 0.99999624,0.99940076 0 1 0 1.238153,-1.5692 c 0,0 -0.671013,-0.5294 -1.544761,-1.0599 -0.873749,-0.5304 -1.894358,-1.1366 -3.083665,-1.1358 -1.187488,8e-4 -1.989962,0.7111 -2.616916,1.2062 -0.626954,0.495 -1.078929,0.7748 -1.378763,0.7748 -0.299611,0 -0.749791,-0.2796 -1.376809,-0.7748 -0.62702,-0.4952 -1.431004,-1.2062 -2.618871,-1.2062 -1.187865,0 -1.989897,0.7109 -2.616915,1.2062 -0.627018,0.4952 -1.079153,0.7748 -1.378763,0.7748 -0.299611,0 -0.749791,-0.2796 -1.37681,-0.7748 -0.627019,-0.4952 -1.431002,-1.2062 -2.618869,-1.2062 -1.187865,0 -1.989898,0.7109 -2.616916,1.2062 -0.627019,0.4952 -1.0772,0.7748 -1.37681,0.7748 -0.299611,0 -0.751744,-0.2796 -1.378763,-0.7748 -0.627019,-0.4952 -1.42905,-1.2062 -2.616916,-1.2062 -1.187866,0 -1.991851,0.7109 -2.618869,1.2062 -0.627018,0.4952 -1.0772,0.7748 -1.37681,0.7748 -0.2996102,0 -1.279848,-0.3852 -2.0349453,-0.8452 -0.7550972,-0.4599 -1.3416576,-0.9212 -1.3416576,-0.9212 A 0.99999624,0.99940076 0 0 0 5.98232,1038.3622 Z" style="color:#000000;font-style:normal;font-variant:normal;font-weight:normal;font-stretch:normal;font-size:medium;line-height:normal;font-family:sans-serif;text-indent:0;text-align:start;text-decoration:none;text-decoration-line:none;text-decoration-style:solid;text-decoration-color:#000000;letter-spacing:normal;word-spacing:normal;text-transform:none;direction:ltr;block-progression:tb;writing-mode:lr-tb;baseline-shift:baseline;text-anchor:start;white-space:normal;clip-rule:nonzero;display:inline;overflow:visible;visibility:visible;opacity:1;isolation:auto;mix-blend-mode:normal;color-interpolation:sRGB;color-interpolation-filters:linearRGB;solid-color:#000000;solid-opacity:1;fill:#000000;fill-opacity:1;fill-rule:evenodd;stroke:none;stroke-width:2;stroke-linecap:round;stroke-linejoin:round;stroke-miterlimit:4;stroke-dasharray:none;stroke-dashoffset:0;stroke-opacity:1;color-rendering:auto;image-rendering:auto;shape-rendering:auto;text-rendering:auto;enable-background:accumulate"/></g><text x="0" y="63.000001" fill="#000000" font-size="5px" font-weight="bold" font-family="'Helvetica Neue', Helvetica, Arial-Unicode, Arial, Sans-serif">Created by anbileru adaleru</text><text x="0" y="68.000001" fill="#000000" font-size="5px" font-weight="bold" font-family="'Helvetica Neue', Helvetica, Arial-Unicode, Arial, Sans-serif">from the Noun Project</text></svg>