<?xml version="1.0" encoding="utf-8"?>
<!-- Generator: Adobe Illustrator 21.0.2, SVG Export Plug-In . SVG Version: 6.00 Build 0)  -->
<svg version="1.1"
	 id="Layer_1" xmlns:cc="http://creativecommons.org/ns#" xmlns:dc="http://purl.org/dc/elements/1.1/" xmlns:inkscape="http://www.inkscape.org/namespaces/inkscape" xmlns:rdf="http://www.w3.org/1999/02/22-rdf-syntax-ns#" xmlns:sodipodi="http://sodipodi.sourceforge.net/DTD/sodipodi-0.dtd" xmlns:svg="http://www.w3.org/2000/svg"
	 xmlns="http://www.w3.org/2000/svg" xmlns:xlink="http://www.w3.org/1999/xlink" x="0px" y="0px" viewBox="0 0 36 41"
	 style="enable-background:new 0 0 36 41;" xml:space="preserve">
<style type="text/css">
	.st0{fill:#FFFFFF;}
</style>
<g>
	<path class="st0" d="M20,26.6c0-7.2,0-14.4,0-21.6c0-2.7-2.3-5-5-5v0c-2.7,0-5,2.2-5,5c0,7.2,0,14.4,0,21.6
		c-2.5,2.1-3.6,5.5-2.6,8.7c1,3.4,4.1,5.7,7.6,5.7c3.5,0,6.6-2.3,7.6-5.7C23.6,32.1,22.5,28.7,20,26.6z M20.7,34.7
		C19.9,37.3,17.6,39,15,39h0c-2.6,0-4.9-1.7-5.7-4.3c-0.8-2.6,0.1-5.4,2.3-6.9l0.4-0.3c0-7.5,0-15,0-22.5c0-1.7,1.3-3,3-3s3,1.3,3,3
		c0,7.5,0,15,0,22.5l0.4,0.3C20.6,29.3,21.5,32.1,20.7,34.7z"/>
	<path class="st0" d="M16,29.1V10c0-0.6-0.4-1-1-1c0,0,0,0,0,0v0c-0.6,0-1,0.5-1,1c0,0,0,0,0,0v19.1c-1.7,0.4-3,2-3,3.9
		c0,2.2,1.8,4,4,4s4-1.8,4-4C19,31.1,17.7,29.6,16,29.1z M15,35c-1.1,0-2-0.9-2-2s0.9-2,2-2s2,0.9,2,2S16.1,35,15,35z"/>
	<path class="st0" d="M6,24C6,24,6,24,6,24H1c-0.6,0-1,0.4-1,1s0.4,1,1,1c0,0,0,0,0,0h5c0.6,0,1-0.4,1-1S6.6,24,6,24z"/>
	<path class="st0" d="M6,12H3c-0.6,0-1,0.4-1,1c0,0.6,0.4,1,1,1c0,0,0,0,0,0h3c0.6,0,1-0.4,1-1C7,12.5,6.6,12,6,12C6,12,6,12,6,12z"
		/>
	<path class="st0" d="M1,10C1,10,1,10,1,10h5c0.6,0,1-0.4,1-1c0-0.6-0.4-1-1-1c0,0,0,0,0,0H1C0.5,8,0,8.4,0,9C0,9.5,0.4,10,1,10z"/>
	<path class="st0" d="M6,4H3C2.5,4,2,4.4,2,5c0,0.6,0.4,1,1,1c0,0,0,0,0,0h3c0.6,0,1-0.4,1-1C7,4.5,6.6,4,6,4C6,4,6,4,6,4z"/>
	<path class="st0" d="M1,2C1,2,1,2,1,2h5c0.6,0,1-0.4,1-1c0-0.6-0.4-1-1-1c0,0,0,0,0,0H1C0.5,0,0,0.4,0,1C0,1.5,0.4,2,1,2z"/>
	<path class="st0" d="M6,20H3c-0.6,0-1,0.4-1,1c0,0.6,0.4,1,1,1c0,0,0,0,0,0h3c0.6,0,1-0.4,1-1C7,20.5,6.6,20,6,20C6,20,6,20,6,20z"
		/>
	<path class="st0" d="M1,18C1,18,1,18,1,18h5c0.6,0,1-0.4,1-1s-0.4-1-1-1c0,0,0,0,0,0H1c-0.6,0-1,0.4-1,1S0.4,18,1,18z"/>
	<path class="st0" d="M35,7c0.6,0,1-0.4,1-1c0-0.6-0.4-1-1-1c0,0,0,0,0,0h-4c-0.6,0-1,0.4-1,1v4c0,0,0,0,0,0c0,0,0,0,0,0v4
		c0,0.6,0.4,1,1,1c0.6,0,1-0.4,1-1c0,0,0,0,0,0v-3h2c0.6,0,1-0.4,1-1c0-0.6-0.4-1-1-1c0,0,0,0,0,0h-2V7H35z"/>
	<path class="st0" d="M25,0c-1.6,0-3,1.4-3,3h0c0,0,0,0,0,0c0,0,0,0,0,0v1c0,0,0,0,0,0h0c0,1.6,1.4,3,3,3c1.6,0,3-1.3,3-3
		c0,0,0,0,0,0c0,0,0,0,0,0V3c0,0,0,0,0,0h0C28,1.4,26.6,0,25,0z M26,4L26,4c0,0.6-0.4,1-1,1c-0.6,0-1-0.4-1-1c0,0,0,0,0,0V3
		c0,0,0,0,0,0h0c0-0.6,0.4-1,1-1c0.6,0,1,0.4,1,1h0c0,0,0,0,0,0c0,0,0,0,0,0L26,4C26,4,26,4,26,4z"/>
</g>
</svg>
