<?xml version="1.0" encoding="utf-8"?>
<!-- Generator: Adobe Illustrator 21.0.2, SVG Export Plug-In . SVG Version: 6.00 Build 0)  -->
<svg version="1.1" id="Layer_1" xmlns="http://www.w3.org/2000/svg" xmlns:xlink="http://www.w3.org/1999/xlink" x="0px" y="0px"
	 viewBox="0 0 54.9 54.3" style="enable-background:new 0 0 54.9 54.3;" xml:space="preserve">
<style type="text/css">
	.st0{fill:#EF4D3B;}
	.st1{fill:#A53428;}
	.st2{fill:#0D5B80;}
	.st3{fill:#F38176;}
	.st4{fill:#63A6CE;}
	.st5{fill:#1182BA;}
</style>
<g>
	<path class="st0" d="M13.7,35.1v-0.2c0-5.1,0-10.3,0-15.4L13.7,35.1l0-15.6V3.4c-1.6,0.9-3.1,1.8-4.7,2.7C8.7,6.3,8.4,6.5,8.1,6.7
		C7.5,7.3,7.1,8,6.9,8.8c-0.1,0.3-0.1,0.7-0.1,1c0,1.7,0,3.5,0,5.2v0.2c-0.2,0.1-0.4,0.3-0.6,0.4c-1.4,0.8-2.8,1.6-4.2,2.4
		c-0.7,0.4-1.2,0.9-1.6,1.6c-0.2,0.3-0.3,0.7-0.4,1.1c0,0.1,0,0.1-0.1,0.2v6.5L27.5,43C22.9,40.3,18.3,37.7,13.7,35.1"/>
	<path class="st1" d="M27.5,43L0,27.4v5c0,0,0.1,0,0.1,0.1c0,0.1,0,0.1-0.1,0.2v0.6c0,0.1,0.1,0.3,0.1,0.4c0.2,1.1,0.8,1.9,1.8,2.5
		c1.4,0.8,2.9,1.6,4.3,2.5c0.2,0.1,0.4,0.2,0.5,0.3c0.1,0.1,0.1,0.1,0.1,0.3c0,1.6,0,3.2,0,4.8c0,0.3,0,0.5,0,0.8c0,1,0.3,1.8,1,2.5
		c0.3,0.3,0.6,0.5,0.9,0.7c1.7,1,3.3,1.9,5,2.9l27.4-15.9C36.6,37.7,32,40.3,27.5,43"/>
	<path class="st2" d="M23.7,13.5c1.2-0.7,2.4-1.4,3.6-2.1c0.1-0.1,0.2-0.1,0.3,0c1.8,1,3.5,2,5.3,3.1c1.1,0.6,2.2,1.3,3.3,1.9
		l18.7,10.4v-5.9c0,0,0-0.1,0-0.1c-0.1-0.9-0.5-1.6-1.2-2.2c-0.4-0.3-0.8-0.6-1.3-0.8c-1.4-0.8-2.8-1.6-4.2-2.5c0,0-0.1,0-0.1-0.1
		V15c0-1.7,0-3.5,0-5.2c0-0.4,0-0.9-0.1-1.3c-0.3-1-0.8-1.7-1.7-2.2c-1.8-1.1-3.7-2.1-5.5-3.2L20.4,15.4
		C21.5,14.8,22.6,14.1,23.7,13.5"/>
	<path class="st3" d="M13.9,19.1c1.3-0.7,2.6-1.5,3.9-2.2c0.9-0.5,1.7-1,2.6-1.5L40.7,3.1c-0.3-0.1-0.5-0.3-0.8-0.4
		c-1.2-0.7-2.4-1.3-3.5-2c-0.4-0.3-0.9-0.5-1.4-0.6c-0.1,0-0.2,0-0.3-0.1h-0.8c-0.2,0-0.4,0.1-0.6,0.1c-0.3,0.1-0.6,0.2-0.9,0.4
		c-1.3,0.8-2.6,1.5-3.9,2.3c-0.3,0.2-0.6,0.3-0.9,0.5c-0.1,0.1-0.2,0.1-0.3,0c-0.9-0.5-1.8-1-2.7-1.5c-0.7-0.4-1.4-0.8-2-1.2
		c-0.4-0.3-0.9-0.4-1.4-0.5C21.1,0,21.1,0,21,0h-0.7c-0.2,0-0.3,0.1-0.5,0.1c-0.4,0.1-0.7,0.2-1,0.4c-1.3,0.7-2.5,1.5-3.8,2.2
		c-0.4,0.2-0.8,0.5-1.2,0.7v16.1C13.7,19.3,13.8,19.2,13.9,19.1"/>
	<path class="st4" d="M13.8,50.9c0.1,0,0.1,0.1,0.2,0.1c1.2,0.7,2.5,1.4,3.7,2.1c0.4,0.2,0.7,0.4,1.1,0.6c0.4,0.2,0.8,0.4,1.2,0.4
		c0,0,0.1,0,0.1,0h1c0.2,0,0.3-0.1,0.5-0.1c0.3-0.1,0.6-0.2,0.8-0.4c1.2-0.7,2.4-1.4,3.6-2.1c0.5-0.3,0.9-0.5,1.4-0.8
		c0.2,0.1,0.3,0.2,0.5,0.3c1.5,0.8,2.9,1.7,4.4,2.5c0.5,0.3,0.9,0.5,1.5,0.5c0,0,0,0,0,0h0.9c0.1,0,0.1,0,0.2,0
		c0.5-0.1,1-0.3,1.5-0.6c0.1-0.1,0.3-0.2,0.5-0.3c1.4-0.8,2.8-1.6,4.2-2.4V35.1L13.8,50.9z"/>
	<path class="st5" d="M36.2,16.4C36.2,16.4,36.2,16.4,36.2,16.4c1.7,1,3.2,1.9,4.8,2.8c0.1,0,0.1,0.1,0.2,0.1v-0.1v0.1v15.8v15.9
		c0.8-0.5,1.7-1,2.5-1.4c0.7-0.4,1.3-0.8,2-1.1c0.4-0.2,0.7-0.4,1.1-0.7c0.7-0.6,1.2-1.4,1.3-2.3c0-0.3,0-0.7,0-1c0-1.7,0-3.4,0-5.1
		c0-0.1,0-0.2,0.2-0.3c1.5-0.9,3-1.7,4.5-2.6c0.3-0.2,0.6-0.4,0.9-0.6c0.6-0.5,1-1.2,1.2-2c0-0.1,0-0.2,0-0.3v-6.7L36.2,16.4z"/>
</g>
</svg>
