<?xml version="1.0" encoding="utf-8"?>
<!-- Generator: Adobe Illustrator 21.0.2, SVG Export Plug-In . SVG Version: 6.00 Build 0)  -->
<svg version="1.1" id="Layer_1" xmlns="http://www.w3.org/2000/svg" xmlns:xlink="http://www.w3.org/1999/xlink" x="0px" y="0px"
	 viewBox="0 0 110.5 54" style="enable-background:new 0 0 110.5 54;" xml:space="preserve">
<style type="text/css">
	.st0{fill:#FFFFFF;}
	.st1{fill:#B4B6B8;}
	.st2{fill:#EF4D3B;}
	.st3{fill:#A53428;}
	.st4{fill:#0D5B80;}
	.st5{fill:#F38176;}
	.st6{fill:#63A6CE;}
	.st7{fill:#1182BA;}
</style>
<g>
	<path class="st0" d="M86.1,39.5c-3.6-2.1-7.2-4.2-10.8-6.2v-0.2c0-4,0-8.1,0-12.1V8.2c-1.2,0.7-2.5,1.4-3.7,2.1
		c-0.3,0.1-0.5,0.3-0.7,0.5c-0.5,0.5-0.8,1-0.9,1.7c0,0.3-0.1,0.5-0.1,0.8c0,1.4,0,2.7,0,4.1v0.2c-0.2,0.1-0.3,0.2-0.5,0.3
		c-1.1,0.6-2.2,1.3-3.3,1.9c-0.5,0.3-1,0.7-1.2,1.3c-0.1,0.3-0.2,0.6-0.3,0.9c0,0.1,0,0.1-0.1,0.2v5.1v0v3.9c0,0,0,0,0,0v0.2
		c0,0,0,0,0,0v0.5c0,0.1,0.1,0.2,0.1,0.3c0.2,0.9,0.6,1.5,1.4,2c1.1,0.7,2.3,1.3,3.4,1.9c0.1,0.1,0.3,0.2,0.4,0.2
		c0.1,0,0.1,0.1,0.1,0.2c0,1.3,0,2.5,0,3.8c0,0.2,0,0.4,0,0.6c0,0.8,0.3,1.4,0.8,2c0.2,0.2,0.5,0.4,0.7,0.6c1.3,0.8,2.6,1.5,4,2.3
		l21.6-12.5C93.3,35.3,89.7,37.4,86.1,39.5L86.1,39.5z"/>
	<path class="st0" d="M96.4,20.4l11.3,6.3v-4.6c0,0,0,0,0-0.1c-0.1-0.7-0.4-1.3-0.9-1.7c-0.3-0.3-0.7-0.5-1-0.7
		c-1.1-0.6-2.2-1.3-3.4-1.9c0,0-0.1,0-0.1-0.1v-0.2c0-1.4,0-2.7,0-4.1c0-0.4,0-0.7-0.1-1c-0.2-0.8-0.7-1.4-1.4-1.8
		C99.4,9.7,98,8.9,96.5,8l0,0c-0.2-0.1-0.4-0.2-0.6-0.4c-0.9-0.5-1.9-1.1-2.8-1.6c-0.3-0.2-0.7-0.4-1.1-0.4c-0.1,0-0.1,0-0.2,0h-0.6
		c-0.2,0-0.3,0.1-0.5,0.1C90.5,5.8,90.3,5.9,90,6C89,6.6,88,7.2,87,7.8c-0.2,0.1-0.5,0.3-0.7,0.4c-0.1,0.1-0.1,0.1-0.2,0
		c-0.7-0.4-1.4-0.8-2.1-1.2c-0.5-0.3-1.1-0.6-1.6-0.9c-0.3-0.2-0.7-0.4-1.1-0.4c-0.1,0-0.1,0-0.2,0h-0.6c-0.1,0-0.3,0.1-0.4,0.1
		c-0.3,0.1-0.5,0.2-0.8,0.3c-1,0.6-2,1.2-3,1.7c-0.3,0.2-0.6,0.4-0.9,0.5v12.7c0-0.1,0-0.2,0.1-0.2c1-0.6,2-1.2,3-1.8
		c0.7-0.4,1.4-0.8,2-1.2l0,0c0.9-0.5,1.7-1,2.6-1.5c0.9-0.5,1.9-1.1,2.8-1.6c0.1-0.1,0.2-0.1,0.3,0c1.4,0.8,2.8,1.6,4.2,2.4
		c0.9,0.5,1.7,1,2.6,1.5l0,0c0,0,0,0,0,0c1.2,0.7,2.5,1.4,3.7,2.2c0,0,0.1,0,0.1,0.1v12.5v0v0L75.3,45.8c0.1,0,0.1,0.1,0.2,0.1
		c1,0.6,1.9,1.1,2.9,1.7c0.3,0.2,0.6,0.3,0.8,0.5c0.3,0.2,0.6,0.3,1,0.3c0,0,0.1,0,0.1,0h0.8c0.1,0,0.3-0.1,0.4-0.1
		c0.2-0.1,0.5-0.2,0.7-0.3c0.9-0.5,1.9-1.1,2.8-1.6c0.4-0.2,0.7-0.4,1.1-0.6c0.1,0.1,0.3,0.1,0.4,0.2c1.2,0.7,2.3,1.3,3.5,2
		c0.4,0.2,0.7,0.4,1.2,0.4c0,0,0,0,0,0h0.7c0.1,0,0.1,0,0.2,0c0.4-0.1,0.8-0.3,1.2-0.5c0.1-0.1,0.3-0.1,0.4-0.2
		c1.1-0.6,2.2-1.3,3.3-1.9v0c0.7-0.4,1.3-0.8,2-1.1c0.5-0.3,1-0.6,1.6-0.9c0.3-0.2,0.6-0.3,0.8-0.5c0.6-0.5,0.9-1.1,1-1.9
		c0-0.3,0-0.5,0-0.8c0-1.3,0-2.7,0-4c0-0.1,0-0.2,0.1-0.2c1.2-0.7,2.4-1.4,3.5-2c0.3-0.1,0.5-0.3,0.7-0.5c0.5-0.4,0.8-1,1-1.6
		c0-0.1,0-0.1,0-0.2v-5.3L96.4,20.4z"/>
	<g>
		<rect x="74.8" y="19.7" class="st0" width="2.1" height="14.6"/>
		<rect x="95.4" y="19.5" class="st0" width="2.1" height="14.6"/>
	</g>
	<g>
		<rect x="80" y="10.7" transform="matrix(0.509 0.8608 -0.8608 0.509 55.3167 -60.9461)" class="st0" width="2.1" height="14.6"/>
		
			<rect x="90.6" y="28.4" transform="matrix(0.509 0.8608 -0.8608 0.509 75.7367 -61.3278)" class="st0" width="2.1" height="14.6"/>
	</g>
	<rect x="80.1" y="28.6" transform="matrix(0.4975 -0.8675 0.8675 0.4975 9.6075 88.4889)" class="st0" width="2.1" height="14.6"/>
	
		<rect x="90.3" y="10.8" transform="matrix(0.4975 -0.8675 0.8675 0.4975 30.1678 88.3345)" class="st0" width="2.1" height="14.6"/>
</g>
<g>
	<path class="st1" d="M67.6,32.5C67.7,32.5,67.7,32.5,67.6,32.5c0,0.1,0,0.1,0,0.2V32.5z"/>
	<path class="st2" d="M75.8,32.9v-0.2c0-3.9,0-7.7,0-11.6L75.8,32.9l0-11.7V9.2c-1.2,0.7-2.3,1.3-3.5,2c-0.2,0.1-0.5,0.3-0.7,0.5
		c-0.5,0.4-0.8,1-0.9,1.6c0,0.2,0,0.5-0.1,0.8c0,1.3,0,2.6,0,3.9v0.2c-0.2,0.1-0.3,0.2-0.5,0.3c-1.1,0.6-2.1,1.2-3.2,1.8
		c-0.5,0.3-0.9,0.7-1.2,1.2c-0.1,0.3-0.2,0.5-0.3,0.8c0,0.1,0,0.1-0.1,0.2v4.9l20.6,11.7C82.7,36.9,79.3,34.9,75.8,32.9"/>
	<path class="st3" d="M86.1,38.9L65.5,27.2V31c0,0,0,0,0,0c0,0.1,0,0.1,0,0.1v0.4c0,0.1,0.1,0.2,0.1,0.3c0.2,0.8,0.6,1.4,1.3,1.9
		c1.1,0.6,2.2,1.2,3.2,1.8c0.1,0.1,0.3,0.2,0.4,0.2c0.1,0,0.1,0.1,0.1,0.2c0,1.2,0,2.4,0,3.6c0,0.2,0,0.4,0,0.6
		c0,0.7,0.2,1.3,0.7,1.9c0.2,0.2,0.4,0.4,0.7,0.6c1.3,0.7,2.5,1.5,3.8,2.2l20.6-11.9C93,34.9,89.6,36.9,86.1,38.9"/>
	<path class="st4" d="M83.3,16.7c0.9-0.5,1.8-1,2.7-1.6c0.1-0.1,0.2-0.1,0.3,0c1.3,0.8,2.6,1.5,4,2.3c0.8,0.5,1.6,0.9,2.5,1.4
		l14,7.8v-4.4c0,0,0,0,0-0.1c-0.1-0.7-0.4-1.2-0.9-1.6c-0.3-0.3-0.6-0.4-1-0.6c-1.1-0.6-2.1-1.2-3.2-1.8c0,0-0.1,0-0.1-0.1v-0.2
		c0-1.3,0-2.6,0-3.9c0-0.3,0-0.7-0.1-1c-0.2-0.7-0.6-1.3-1.3-1.7c-1.4-0.8-2.8-1.6-4.2-2.4l-15.2,9.3C81.6,17.7,82.5,17.2,83.3,16.7
		"/>
	<path class="st5" d="M75.9,21c1-0.6,1.9-1.1,2.9-1.7c0.6-0.4,1.3-0.7,1.9-1.1L96,8.9c-0.2-0.1-0.4-0.2-0.6-0.3
		c-0.9-0.5-1.8-1-2.7-1.5c-0.3-0.2-0.7-0.3-1.1-0.4c-0.1,0-0.1,0-0.2,0H91c-0.1,0-0.3,0.1-0.4,0.1c-0.2,0.1-0.5,0.2-0.7,0.3
		c-1,0.6-2,1.1-2.9,1.7c-0.2,0.1-0.5,0.3-0.7,0.4c-0.1,0-0.1,0.1-0.2,0c-0.7-0.4-1.3-0.8-2-1.2c-0.5-0.3-1-0.6-1.5-0.9
		c-0.3-0.2-0.7-0.3-1-0.4c-0.1,0-0.1,0-0.2,0h-0.5c-0.1,0-0.3,0.1-0.4,0.1c-0.3,0.1-0.5,0.2-0.8,0.3c-1,0.6-1.9,1.1-2.9,1.6
		c-0.3,0.2-0.6,0.3-0.9,0.5v12.1C75.8,21.1,75.8,21,75.9,21"/>
	<path class="st6" d="M75.8,44.9c0.1,0,0.1,0.1,0.2,0.1c0.9,0.5,1.9,1.1,2.8,1.6c0.3,0.2,0.5,0.3,0.8,0.5c0.3,0.2,0.6,0.3,0.9,0.3
		c0,0,0.1,0,0.1,0h0.8c0.1,0,0.3-0.1,0.4-0.1c0.2-0.1,0.4-0.2,0.6-0.3c0.9-0.5,1.8-1,2.7-1.6c0.3-0.2,0.7-0.4,1-0.6
		c0.1,0.1,0.2,0.1,0.4,0.2c1.1,0.6,2.2,1.3,3.3,1.9c0.3,0.2,0.7,0.3,1.1,0.4c0,0,0,0,0,0h0.7c0.1,0,0.1,0,0.2,0
		c0.4-0.1,0.8-0.2,1.1-0.5c0.1-0.1,0.2-0.1,0.4-0.2c1-0.6,2.1-1.2,3.1-1.8V32.9L75.8,44.9z"/>
	<path class="st7" d="M92.7,18.9C92.7,18.9,92.7,18.9,92.7,18.9c1.2,0.7,2.4,1.4,3.6,2.1c0,0,0.1,0,0.1,0.1V21v0.1v11.9v11.9
		c0.6-0.4,1.3-0.7,1.9-1.1c0.5-0.3,1-0.6,1.5-0.9c0.3-0.2,0.6-0.3,0.8-0.5c0.5-0.5,0.9-1,1-1.8c0-0.2,0-0.5,0-0.7c0-1.3,0-2.6,0-3.8
		c0-0.1,0-0.2,0.1-0.2c1.1-0.6,2.2-1.3,3.4-1.9c0.2-0.1,0.5-0.3,0.7-0.5c0.5-0.4,0.8-0.9,0.9-1.5c0-0.1,0-0.1,0-0.2v-5L92.7,18.9z"
		/>
	<path class="st0" d="M65.5,31v0.2C65.5,31.1,65.5,31.1,65.5,31C65.5,31,65.5,31,65.5,31"/>
</g>
</svg>
